<?xml version="1.0" encoding="UTF-8" standalone="no"?>
<svg
   width="1920"
   height="251"
   viewBox="0 0 1920 251"
   fill="none"
   version="1.1"
   id="svg1"
   sodipodi:docname="bg_wave_top.svg"
   inkscape:version="1.3 (0e150ed6c4, 2023-07-21)"
   xmlns:inkscape="http://www.inkscape.org/namespaces/inkscape"
   xmlns:sodipodi="http://sodipodi.sourceforge.net/DTD/sodipodi-0.dtd"
   xmlns="http://www.w3.org/2000/svg"
   xmlns:svg="http://www.w3.org/2000/svg">
  <defs
     id="defs1" />
  <sodipodi:namedview
     id="namedview1"
     pagecolor="#ffffff"
     bordercolor="#000000"
     borderopacity="0.25"
     inkscape:showpageshadow="2"
     inkscape:pageopacity="0.0"
     inkscape:pagecheckerboard="0"
     inkscape:deskcolor="#d1d1d1"
     inkscape:zoom="0.97430556"
     inkscape:cx="2058.9023"
     inkscape:cy="125.73058"
     inkscape:window-width="1920"
     inkscape:window-height="1017"
     inkscape:window-x="-8"
     inkscape:window-y="-8"
     inkscape:window-maximized="1"
     inkscape:current-layer="svg1" />
  <path
     fill-rule="evenodd"
     clip-rule="evenodd"
     d="m 0,65.566402 88.353528,-13.472 c 88.353532,-13.472 265.060582,-39.8036 441.767642,-48.3767098 176.70706,-9.18544 353.41411,0 530.12113,12.8596098 176.7071,13.472 353.4142,31.2305 530.1212,35.5171 176.7071,4.2865 353.4141,-4.2866 441.7676,-8.5731 l 88.3536,-4.8989 V 250.5 h -88.3536 c -88.3535,0 -265.0605,0 -441.7676,0 -176.707,0 -353.4141,0 -530.1212,0 -176.70702,0 -353.41407,0 -530.12113,0 -176.70706,0 -353.41411,0 -441.767642,0 H 0 Z"
     fill="#343d68"
     id="path1"
     style="stroke-width:1.21349" />
  <rect
     style="fill:#343d68;fill-opacity:1"
     id="rect1"
     width="608.63843"
     height="212.45901"
     x="2115.3528"
     y="39.002136" />
</svg>
