<svg width="1440" height="251" viewBox="0 0 1440 251" fill="none" xmlns="http://www.w3.org/2000/svg">
<path fill-rule="evenodd" clip-rule="evenodd" d="M0 65.5664L60 52.0944C120 38.6224 240 12.2908 360 3.71769C480 -5.46775 600 3.71769 720 16.5773C840 30.0493 960 47.8078 1080 52.0944C1200 56.3809 1320 47.8078 1380 43.5213L1440 38.6224V250.5H1380C1320 250.5 1200 250.5 1080 250.5C960 250.5 840 250.5 720 250.5C600 250.5 480 250.5 360 250.5C240 250.5 120 250.5 60 250.5H0V65.5664Z" fill="#343D68"/>
</svg>
