<svg width="40" height="40" viewBox="0 0 40 40" fill="none" xmlns="http://www.w3.org/2000/svg">
<g clip-path="url(#clip0_1_4731)">
<path d="M0.260956 34.5054C0.260956 37.2922 2.51997 39.5509 5.30649 39.5509H34.3457C37.1327 39.5509 39.3914 37.2919 39.3914 34.5054V5.46616C39.3914 2.67918 37.1324 0.420471 34.3459 0.420471H5.30664C2.51967 0.420471 0.260956 2.67949 0.260956 5.466V34.5052V34.5054Z" fill="#563D7C"/>
<path d="M16.4876 17.7293V12.1879H21.3653C21.8299 12.1879 22.2778 12.2266 22.7091 12.3041C23.1405 12.3814 23.5222 12.5196 23.854 12.7188C24.1857 12.9179 24.4512 13.1944 24.6504 13.5483C24.8494 13.9023 24.9491 14.3558 24.9491 14.9087C24.9491 15.9042 24.6504 16.6233 24.053 17.0656C23.4558 17.5081 22.6926 17.7293 21.7634 17.7293H16.4876ZM11.2779 8.13959V31.8318H22.759C23.8209 31.8318 24.8551 31.6992 25.8616 31.4337C26.8681 31.1682 27.764 30.759 28.5494 30.2059C29.3346 29.6529 29.9596 28.9394 30.4241 28.0657C30.8888 27.1918 31.121 26.1576 31.121 24.9631C31.121 23.4809 30.7615 22.2145 30.0426 21.1638C29.3236 20.1129 28.234 19.3774 26.774 18.957C27.8358 18.4483 28.6379 17.7956 29.1799 16.9993C29.7218 16.2029 29.9928 15.2075 29.9928 14.0128C29.9928 12.9068 29.8103 11.9777 29.4452 11.2255C29.0802 10.4735 28.5659 9.87065 27.9022 9.41714C27.2387 8.96362 26.4423 8.63728 25.5131 8.43826C24.584 8.23909 23.5553 8.13959 22.4271 8.13959H11.2779ZM16.4876 27.7835V21.2798H22.1616C23.2898 21.2798 24.1969 21.5396 24.8827 22.0596C25.5684 22.5795 25.9114 23.4477 25.9114 24.6644C25.9114 25.2839 25.8063 25.7926 25.5961 26.1908C25.3859 26.589 25.1039 26.9043 24.7499 27.1365C24.396 27.3688 23.9867 27.5347 23.5222 27.6343C23.0575 27.7337 22.571 27.7835 22.0621 27.7835H16.4876Z" fill="white"/>
</g>
<defs>
<clipPath id="clip0_1_4731">
<rect width="39.1304" height="39.1304" fill="white" transform="translate(0.260956 0.420471)"/>
</clipPath>
</defs>
</svg>
