<svg width="53" height="53" viewBox="0 0 53 53" fill="none" xmlns="http://www.w3.org/2000/svg">
<path d="M39.3687 45.5356L26.1737 49.0885L12.9785 45.5356L9.93365 12.5481H42.414L39.3687 45.5356Z" fill="#2062AF"/>
<path d="M26.1736 15.22V46.2547L26.2034 46.2629L36.8816 43.3875L39.3463 15.22H26.1736Z" fill="#3C9CD7"/>
<path d="M18.685 7.70157V5.73816H21.5496V3.58972H16.5366V9.66207H21.5496V7.70157H18.685ZM26.7027 5.73816H28.7055V3.58972H23.6919V5.73816C24.3627 6.4089 24.7125 6.72994 25.6826 7.70002C25.1155 7.70002 23.6919 7.70205 23.6919 7.70195V9.66207H28.7055V7.70157L26.7027 5.73816ZM33.8085 5.73816H35.8112V3.58972H30.7974V5.73816C31.4682 6.4089 31.8182 6.72994 32.7883 7.70002C32.2214 7.70002 30.7974 7.70205 30.7974 7.70195V9.66207H35.8113V7.70157L33.8085 5.73816Z" fill="black"/>
<path d="M26.1619 23.4682L16.7178 27.4014L17.031 31.2956L26.1619 27.3916L35.8748 23.2388L36.2775 19.2552L26.1619 23.4682Z" fill="white"/>
<path d="M16.7177 27.4015L17.0309 31.2956L26.1618 27.3916V23.4683L16.7177 27.4015Z" fill="url(#paint0_linear_1_4709)"/>
<path d="M36.2775 19.2554L26.1619 23.4683V27.3916L35.8748 23.2389L36.2775 19.2554Z" fill="url(#paint1_linear_1_4709)"/>
<path d="M16.7322 27.4015L17.0455 31.2957L31.0557 31.3403L30.7423 36.5325L26.1322 37.8304L21.7004 36.7114L21.4319 33.4887H17.3141L17.8512 39.7103L26.1769 42.172L34.4575 39.7549L35.5318 27.4015H16.7322Z" fill="url(#paint2_linear_1_4709)"/>
<path opacity="0.05" d="M26.1619 27.4015H16.7178L17.031 31.2957L26.1619 31.3248V27.4015ZM26.1619 37.818L26.1172 37.8305L21.686 36.7115L21.4175 33.4888H17.2997L17.8368 39.7104L26.1619 42.1721V37.818Z" fill="black"/>
<path d="M15.8673 19.2554H36.2776L35.8749 23.239H16.3596L15.8673 19.2554Z" fill="url(#paint3_linear_1_4709)"/>
<path opacity="0.05" d="M26.1619 19.2554H15.8673L16.3596 23.239H26.1619V19.2554Z" fill="black"/>
<defs>
<linearGradient id="paint0_linear_1_4709" x1="21.4398" y1="31.2957" x2="21.4398" y2="23.4684" gradientUnits="userSpaceOnUse">
<stop offset="0.387" stop-color="#D1D3D4" stop-opacity="0"/>
<stop offset="1" stop-color="#D1D3D4"/>
</linearGradient>
<linearGradient id="paint1_linear_1_4709" x1="31.2196" y1="27.3917" x2="31.2196" y2="19.2555" gradientUnits="userSpaceOnUse">
<stop offset="0.387" stop-color="#D1D3D4" stop-opacity="0"/>
<stop offset="1" stop-color="#D1D3D4"/>
</linearGradient>
<linearGradient id="paint2_linear_1_4709" x1="16.7322" y1="34.7868" x2="35.5317" y2="34.7868" gradientUnits="userSpaceOnUse">
<stop stop-color="#E8E7E5"/>
<stop offset="1" stop-color="white"/>
</linearGradient>
<linearGradient id="paint3_linear_1_4709" x1="15.8673" y1="21.2472" x2="36.2775" y2="21.2472" gradientUnits="userSpaceOnUse">
<stop stop-color="#E8E7E5"/>
<stop offset="1" stop-color="white"/>
</linearGradient>
</defs>
</svg>
