<svg width="31" height="31" viewBox="0 0 31 31" fill="none" xmlns="http://www.w3.org/2000/svg">
<g clip-path="url(#clip0_1_4795)">
<path d="M15.4995 0.812317C7.21661 0.812317 0.5 7.55409 0.5 15.8728C0.5 22.5255 4.79726 28.1704 10.76 30.1615C11.5095 30.3004 11.7829 29.8354 11.7829 29.4357C11.7829 29.0786 11.7698 28.1317 11.7626 26.8746C7.58919 27.7857 6.70903 24.8559 6.70903 24.8559C6.02774 23.1159 5.04452 22.6538 5.04452 22.6538C3.68194 21.7189 5.1471 21.7368 5.1471 21.7368C6.65194 21.8428 7.44403 23.2896 7.44403 23.2896C8.78339 25.5909 10.956 24.9255 11.8105 24.5399C11.9455 23.5673 12.334 22.903 12.7623 22.527C9.43226 22.1462 5.93097 20.8552 5.93097 15.0851C5.93097 13.4413 6.515 12.0967 7.47452 11.0428C7.31919 10.662 6.80484 9.13151 7.62064 7.05861C7.62064 7.05861 8.88064 6.65409 11.7456 8.60216C12.9423 8.26828 14.2255 8.10135 15.5015 8.09457C16.7745 8.10135 18.0587 8.2678 19.2573 8.60216C22.1198 6.65409 23.3779 7.05861 23.3779 7.05861C24.1956 9.13151 23.6813 10.662 23.5265 11.0428C24.4884 12.0967 25.069 13.4409 25.069 15.0851C25.069 20.8697 21.5619 22.1423 18.2203 22.5159C18.7589 22.9809 19.2384 23.8993 19.2384 25.3049C19.2384 27.3188 19.2205 28.9417 19.2205 29.4357C19.2205 29.8393 19.491 30.3081 20.2516 30.1596C26.2066 28.1646 30.5 22.5236 30.5 15.8728C30.5 7.55409 23.7834 0.812317 15.4995 0.812317Z" fill="white"/>
<path d="M15.4995 0.812317C7.21661 0.812317 0.5 7.55409 0.5 15.8728C0.5 22.5255 4.79726 28.1704 10.76 30.1615C11.5095 30.3004 11.7829 29.8354 11.7829 29.4357C11.7829 29.0786 11.7698 28.1317 11.7626 26.8746C7.58919 27.7857 6.70903 24.8559 6.70903 24.8559C6.02774 23.1159 5.04452 22.6538 5.04452 22.6538C3.68194 21.7189 5.1471 21.7368 5.1471 21.7368C6.65194 21.8428 7.44403 23.2896 7.44403 23.2896C8.78339 25.5909 10.956 24.9255 11.8105 24.5399C11.9455 23.5673 12.334 22.903 12.7623 22.527C9.43226 22.1462 5.93097 20.8552 5.93097 15.0851C5.93097 13.4413 6.515 12.0967 7.47452 11.0428C7.31919 10.662 6.80484 9.13151 7.62064 7.05861C7.62064 7.05861 8.88064 6.65409 11.7456 8.60216C12.9423 8.26828 14.2255 8.10135 15.5015 8.09457C16.7745 8.10135 18.0587 8.2678 19.2573 8.60216C22.1198 6.65409 23.3779 7.05861 23.3779 7.05861C24.1956 9.13151 23.6813 10.662 23.5265 11.0428C24.4884 12.0967 25.069 13.4409 25.069 15.0851C25.069 20.8697 21.5619 22.1423 18.2203 22.5159C18.7589 22.9809 19.2384 23.8993 19.2384 25.3049C19.2384 27.3188 19.2205 28.9417 19.2205 29.4357C19.2205 29.8393 19.491 30.3081 20.2516 30.1596C26.2066 28.1646 30.5 22.5236 30.5 15.8728C30.5 7.55409 23.7834 0.812317 15.4995 0.812317Z" fill="white"/>
<path d="M23.3929 7.10059C24.1869 9.15123 23.6803 10.6648 23.526 11.0427C24.4879 12.0966 25.0686 13.4407 25.0686 15.0849C25.0686 20.8696 21.5615 22.1422 18.2198 22.5157C18.7584 22.9807 19.2379 23.8991 19.2379 25.3048C19.2379 27.3187 19.22 28.9416 19.22 29.4356C19.22 29.8391 19.4905 30.308 20.2511 30.1595C26.2066 28.1645 30.5 22.5235 30.5 15.8727C30.5 14.0848 30.1884 12.3709 29.6189 10.7799C27.5508 8.60252 25.249 7.15236 23.3929 7.10059Z" fill="white"/>
<path d="M12.1719 23.3219C12.3403 22.9823 12.546 22.7181 12.7623 22.5269C10.9371 22.3179 9.06258 21.8306 7.73919 20.486C8.75726 22.1805 10.415 22.9513 12.1719 23.3219Z" fill="white"/>
<path d="M1.28097 16.888C1.28097 8.56925 7.99758 1.82748 16.2805 1.82748C20.8797 1.82748 24.9935 3.90764 27.7444 7.17958C25.0274 3.32796 20.5574 0.812317 15.4995 0.812317C7.21661 0.812317 0.5 7.55409 0.5 15.8728C0.5 19.5817 1.8379 22.9751 4.05355 25.5981C2.31113 23.1386 1.28097 20.1357 1.28097 16.888Z" fill="white"/>
<path d="M20.0189 26.3205C20.0189 24.9154 19.5394 23.9955 19.0008 23.5305C22.3424 23.158 25.85 21.8844 25.85 16.1002C25.85 14.456 25.2694 13.1123 24.3065 12.0584C24.4623 11.6776 24.9776 10.1467 24.1579 8.07425C24.1579 8.07425 24.0021 8.02634 23.6803 8.04473C24.0316 9.60763 23.6552 10.7254 23.526 11.0428C24.4879 12.0967 25.0685 13.4409 25.0685 15.0851C25.0685 20.8697 21.5615 22.1423 18.2198 22.5159C18.7584 22.9809 19.2379 23.8992 19.2379 25.3049C19.2379 27.3188 19.22 28.9417 19.22 29.4357C19.22 29.7909 19.4315 30.1959 20.0015 30.1862C20.0053 29.5054 20.0189 28.06 20.0189 26.3205Z" fill="white"/>
<path d="M7.60468 26.1448C7.91968 26.7932 8.97839 28.3464 11.7713 28.0193C11.7674 27.6777 11.7645 27.295 11.7626 26.8745C9.6079 27.3448 8.33581 26.7903 7.60468 26.1448Z" fill="white"/>
<path d="M8.14323 24.1726C8.04694 24.0274 7.86645 23.7811 7.60468 23.5349C7.77452 23.7869 7.955 23.9984 8.14323 24.1726Z" fill="white"/>
</g>
<defs>
<clipPath id="clip0_1_4795">
<rect width="30" height="30" fill="white" transform="translate(0.5 0.5)"/>
</clipPath>
</defs>
</svg>
