<svg width="30" height="30" viewBox="0 0 30 30" fill="none" xmlns="http://www.w3.org/2000/svg">
<g clip-path="url(#clip0_1_4787)">
<path d="M30 6.19559V23.8043C30 25.4282 28.6891 26.7391 27.0652 26.7391H2.93479C1.31086 26.7391 0 25.4282 0 23.8043V6.19559C0 6.14344 0 6.09124 0.00650391 6.03909C0.0847852 4.53909 1.27822 3.34559 2.77822 3.26737C2.83037 3.26086 2.88258 3.26086 2.93473 3.26086H27.0652C27.1173 3.26086 27.176 3.26086 27.2282 3.26737C28.7217 3.34565 29.9152 4.53909 29.9934 6.03258C30 6.08473 30 6.14344 30 6.19559Z" fill="white"/>
<path d="M27.2283 3.26731C27.176 3.2608 27.1175 3.2608 27.0652 3.2608H15V26.7391H27.0652C28.6891 26.7391 30 25.4282 30 23.8043V6.19559C30 6.14344 30 6.08473 29.9935 6.03252C29.9152 4.53908 28.7217 3.34559 27.2283 3.26731Z" fill="white"/>
<path d="M29.9935 6.03267C29.9152 4.53917 28.7218 3.34573 27.2283 3.26745C22.435 8.06072 19.7432 10.7525 15 15.4957C13.2006 13.6953 4.54746 5.03663 2.77828 3.2674C1.27828 3.34568 0.0847852 4.53911 0.0065625 6.03911C0 6.09132 0 6.14353 0 6.19568V23.8044C0 25.4283 1.31086 26.7392 2.93479 26.7392H3.91307V9.94568L13.6174 19.6435C13.9957 20.0283 14.4979 20.2175 15.0001 20.2175C15.5022 20.2175 16.0044 20.0283 16.3827 19.6435L26.0871 9.93917V26.7392H27.0653C28.6893 26.7392 30.0001 25.4283 30.0001 23.8044V6.19568C30 6.14353 30 6.08482 29.9935 6.03267Z" fill="#303030" fill-opacity="0.57"/>
<path d="M16.3826 19.6435L26.0869 9.93917V26.7392H27.0652C28.6891 26.7392 30 25.4283 30 23.8044V6.19568C30 6.14353 30 6.08482 29.9935 6.03261C29.9152 4.53911 28.7218 3.34568 27.2283 3.2674C22.435 8.06072 19.7432 10.7525 15 15.4957V20.2174C15.5021 20.2174 16.0044 20.0283 16.3826 19.6435Z" fill="#303030" fill-opacity="0.57"/>
</g>
<defs>
<clipPath id="clip0_1_4787">
<rect width="30" height="30" fill="white"/>
</clipPath>
</defs>
</svg>
