<svg width="75" height="102" viewBox="0 0 75 102" fill="none" xmlns="http://www.w3.org/2000/svg">
<path d="M36 2.02073C36.9282 1.48483 38.0718 1.48483 39 2.02073L67.476 18.4613C68.4042 18.9972 68.976 19.9876 68.976 21.0594V53.9406C68.976 55.0124 68.4042 56.0028 67.476 56.5387L39 72.9793C38.0718 73.5152 36.9282 73.5152 36 72.9793L7.52405 56.5387C6.59585 56.0028 6.02405 55.0124 6.02405 53.9406V21.0594C6.02405 19.9876 6.59584 18.9972 7.52405 18.4613L36 2.02073Z" stroke="url(#paint0_linear_1_4697)" stroke-width="2"/>
<g clip-path="url(#clip0_1_4697)">
<path d="M53.2872 24.5656L50.4741 56.0797L37.829 59.5853L25.2187 56.0845L22.4085 24.5656H53.2872Z" fill="#E44D26"/>
<path d="M37.8478 56.9057L48.0657 54.073L50.4696 27.1426H37.8478V56.9057Z" fill="#F16529"/>
<path d="M32.3792 34.8741H37.8478V31.0084H28.1545L28.247 32.0455L29.1972 42.6983H37.8478V38.8326H32.7325L32.3792 34.8741ZM33.2505 44.6312H29.3699L29.9114 50.7009L37.83 52.899L37.8478 52.8941V48.8722L37.8309 48.8767L33.5257 47.7142L33.2505 44.6312Z" fill="#EBEBEB"/>
<path d="M25.2814 16H27.2459V17.9409H29.043V16H31.0076V21.8775H29.0431V19.9094H27.246V21.8775H25.2815V16H25.2814ZM33.5908 17.9491H31.8616V16H37.2859V17.9491H35.5557V21.8775H33.5912V17.9491H33.5911H33.5908ZM38.1468 16H40.1951L41.4552 18.0652L42.714 16H44.7632V21.8775H42.8067V18.9643L41.4552 21.054H41.4213L40.0689 18.9643V21.8775H38.1468V16ZM45.7409 16H47.706V19.9348H50.4686V21.8775H45.7407V16H45.7409Z" fill="black"/>
<path d="M37.8345 42.6983H42.5946L42.1458 47.7118L37.8344 48.8755V52.8972L45.7592 50.7009L45.8173 50.0478L46.7259 39.8707L46.8202 38.8326H37.8345V42.6983ZM37.8345 34.8647V34.8741H47.1719L47.2494 34.0053L47.4256 32.0455L47.518 31.0084H37.8345V34.8648V34.8647Z" fill="white"/>
</g>
<path d="M19.5312 86.8V98H18.1392V92.928H12.4432V98H11.0672V86.8H12.4432V91.808H18.1392V86.8H19.5312ZM29.4146 88.048H26.1186V98H24.7426V88.048H21.4466V86.8H29.4146V88.048ZM31.2391 86.8H33.2711L36.5991 95.376H36.6471L39.9751 86.8H42.0071V98H40.6471V88.928H40.5831L37.1111 98H36.1191L32.6631 88.928H32.5991V98H31.2391V86.8ZM51.1283 96.752V98H44.5203V86.8H45.9123L45.8963 96.752H51.1283ZM60.4686 98.064C59.7539 98.064 59.1246 97.9253 58.5806 97.648C58.0366 97.3707 57.6046 97.0133 57.2846 96.576C56.9646 96.128 56.7619 95.6427 56.6766 95.12H58.0526C58.2232 95.696 58.5272 96.1227 58.9646 96.4C59.4019 96.6773 59.8979 96.816 60.4526 96.816C61.2312 96.816 61.8339 96.5707 62.2606 96.08C62.6872 95.5787 62.9006 94.9227 62.9006 94.112C62.9006 93.248 62.6659 92.5973 62.1966 92.16C61.7272 91.7227 61.1406 91.504 60.4366 91.504C59.7219 91.504 59.2099 91.664 58.9006 91.984C58.6019 92.304 58.3939 92.6133 58.2766 92.912L56.8366 92.816L57.1406 86.8H63.5086V88.08H58.2926L58.1006 91.68H58.1646C58.7086 90.8587 59.5619 90.448 60.7246 90.448C61.4179 90.448 62.0312 90.5973 62.5646 90.896C63.1086 91.184 63.5299 91.6053 63.8286 92.16C64.1272 92.704 64.2766 93.36 64.2766 94.128C64.2766 94.8747 64.1219 95.5467 63.8126 96.144C63.5139 96.7413 63.0766 97.2107 62.5006 97.552C61.9246 97.8933 61.2472 98.064 60.4686 98.064Z" fill="black"/>
<defs>
<linearGradient id="paint0_linear_1_4697" x1="69.6429" y1="75" x2="-9.86444" y2="24.6315" gradientUnits="userSpaceOnUse">
<stop stop-color="#0D54BE"/>
<stop offset="1" stop-color="#20ECD3"/>
</linearGradient>
<clipPath id="clip0_1_4697">
<rect width="43.6957" height="43.6957" fill="white" transform="translate(16 16)"/>
</clipPath>
</defs>
</svg>
