<svg width="44" height="44" viewBox="0 0 44 44" fill="none" xmlns="http://www.w3.org/2000/svg">
<g clip-path="url(#clip0_1_4700)">
<path d="M37.2872 8.56555L34.4741 40.0797L21.829 43.5853L9.21871 40.0845L6.40851 8.56555H37.2872Z" fill="#E44D26"/>
<path d="M21.8478 40.9057L32.0657 38.073L34.4696 11.1426H21.8478V40.9057Z" fill="#F16529"/>
<path d="M16.3792 18.8741H21.8478V15.0084H12.1545L12.247 16.0455L13.1972 26.6983H21.8478V22.8326H16.7325L16.3792 18.8741ZM17.2505 28.6312H13.3699L13.9114 34.7009L21.83 36.899L21.8478 36.8941V32.8722L21.8309 32.8767L17.5257 31.7142L17.2505 28.6312Z" fill="#EBEBEB"/>
<path d="M9.28137 0H11.2459V1.94088H13.043V0H15.0076V5.87749H13.0431V3.90937H11.246V5.87749H9.28149V0H9.28137ZM17.5908 1.94912H15.8616V0H21.2859V1.94912H19.5557V5.87749H17.5912V1.94912H17.5911H17.5908ZM22.1468 0H24.1951L25.4552 2.06519L26.714 0H28.7632V5.87749H26.8067V2.96428L25.4552 5.05405H25.4213L24.0689 2.96428V5.87749H22.1468V0ZM29.7409 0H31.706V3.93479H34.4686V5.87749H29.7407V0H29.7409Z" fill="black"/>
<path d="M21.8345 26.6983H26.5946L26.1458 31.7118L21.8344 32.8755V36.8972L29.7592 34.7009L29.8173 34.0478L30.7259 23.8707L30.8202 22.8326H21.8345V26.6983ZM21.8345 18.8647V18.8741H31.1719L31.2494 18.0053L31.4256 16.0455L31.518 15.0084H21.8345V18.8648V18.8647Z" fill="white"/>
</g>
<defs>
<clipPath id="clip0_1_4700">
<rect width="43.6957" height="43.6957" fill="white"/>
</clipPath>
</defs>
</svg>
