<svg width="511" height="414" viewBox="0 0 511 414" fill="none" xmlns="http://www.w3.org/2000/svg">
<g clip-path="url(#clip0_1_4735)">
<path d="M511 384.682H0V385.88H511V384.682Z" fill="#343D68"/>
<path d="M320.611 179.535C320.611 179.535 297.691 197.689 309.151 201.815C320.611 205.941 327.979 186.962 327.979 186.962L320.611 179.535Z" fill="#E9C1A1"/>
<path d="M321.43 172.933L316.518 181.185C316.518 181.185 324.704 181.185 326.341 193.563L332.89 185.311L321.43 172.933Z" fill="#CFCCE0"/>
<path d="M430.302 361.077L431.121 385.833L421.297 391.609L417.205 389.134L418.023 361.077H430.302Z" fill="#E9C1A1"/>
<path d="M372.182 354.475L373.819 380.882L350.899 390.784L352.536 376.756C352.536 376.756 359.085 366.028 357.448 354.475H372.182Z" fill="#E9C1A1"/>
<path d="M407.381 155.605C407.381 155.605 420.479 190.263 422.935 211.718C425.39 233.172 429.483 290.111 429.483 290.111L437.669 363.553L414.749 366.853L404.926 292.586L382.824 219.144L377.912 292.586L373.819 359.427L352.536 360.252L350.899 290.936L341.895 202.64L346.806 160.556L407.381 155.605Z" fill="#2F2E41"/>
<path d="M419.66 387.483C419.66 387.483 421.003 373.624 430.973 381.379L432.758 380.056L440.943 398.211C440.943 398.211 450.766 412.239 433.576 413.889C416.386 415.54 418.023 398.211 418.023 398.211L416.386 390.784L417.204 385.92L419.66 387.483Z" fill="#2F2E41"/>
<path d="M372.182 370.979C374.197 372.141 375.867 373.824 377.019 375.856C378.17 377.887 378.761 380.192 378.731 382.532C378.731 390.784 377.912 391.609 377.912 391.609L365.634 394.91C365.634 394.91 357.448 394.085 352.536 399.036C347.625 403.987 323.067 407.288 323.067 400.686C323.067 394.085 343.532 383.357 343.532 383.357C343.532 383.357 349.609 373.011 353.938 374.058C358.266 375.105 359.904 376.756 359.904 377.581C359.904 378.406 357.448 384.182 357.448 384.182C357.448 384.182 371.364 380.882 372.182 370.979Z" fill="#2F2E41"/>
<path d="M370.545 54.106C381.847 54.106 391.01 44.8698 391.01 33.4763C391.01 22.0828 381.847 12.8465 370.545 12.8465C359.243 12.8465 350.08 22.0828 350.08 33.4763C350.08 44.8698 359.243 54.106 370.545 54.106Z" fill="#E9C1A1"/>
<path d="M385.689 38.84L394.693 59.4698L370.136 94.953C370.136 94.953 368.499 56.169 363.587 49.5675C358.676 42.966 385.689 38.84 385.689 38.84Z" fill="#E9C1A1"/>
<path d="M374.229 81.7501L378.322 71.0227L381.596 71.8476L385.689 68.5468L391.419 50.3928L399.605 56.169L410.246 164.269L343.941 165.919L352.946 90.827L361.132 69.3723L367.04 61.4977L370.954 73.498L374.229 81.7501Z" fill="#CFCCE0"/>
<path d="M393.056 127.961L395.561 53.3156C395.561 53.3156 400.423 53.6935 402.061 56.1691C403.698 58.6446 430.711 63.5958 430.711 63.5958L425.8 140.339C425.8 140.339 446.264 201.403 438.897 204.703C431.53 208.004 418.432 207.179 418.432 207.179L393.056 127.961Z" fill="#575A89"/>
<path d="M353.355 118.471L362.039 68.163L342.713 81.3373L347.625 117.646L343.532 142.401C343.532 142.401 327.979 210.892 332.89 213.368C337.802 215.843 343.532 213.368 343.532 213.368L353.355 144.052V118.471Z" fill="#575A89"/>
<path d="M348.443 79.687L342.713 81.3374L340.257 114.345L336.164 143.227L316.518 178.71C316.518 178.71 326.341 172.108 330.434 191.088L352.07 153.115L348.443 79.687Z" fill="#575A89"/>
<path d="M412.293 172.933C412.293 172.933 389.373 191.088 400.833 195.214C412.293 199.34 419.66 180.36 419.66 180.36L412.293 172.933Z" fill="#E9C1A1"/>
<path d="M426.209 182.011L418.842 191.088L409.019 173.759L413.111 166.332L426.209 182.011Z" fill="#CFCCE0"/>
<path d="M424.572 66.4839L431.12 63.1832C431.12 63.1832 436.032 69.7847 436.85 75.561C437.669 81.3374 441.762 88.7641 441.762 92.89C441.762 97.016 453.222 135.8 453.222 135.8L427.027 189.437C427.027 189.437 421.297 169.633 409.019 167.982L429.483 139.101L418.023 118.471L424.572 66.4839Z" fill="#575A89"/>
<path d="M387.677 13.8205L391.536 12.2631C391.536 12.2631 383.467 3.30794 372.241 4.08669L375.398 0.58246C375.398 0.58246 367.68 -2.53235 360.664 5.64407C356.975 9.94222 352.708 14.9945 350.047 20.6858H345.914L347.639 24.5144L341.602 28.3431L347.799 27.6554C347.429 29.752 347.373 31.8924 347.63 34.0059C347.896 36.12 348.967 38.0473 350.615 39.3811C350.615 39.3811 355.401 29.3947 355.401 27.8372V31.7308C355.401 31.7308 359.26 28.2266 359.26 25.8905L361.365 28.616L362.418 24.333L375.398 28.616L373.293 25.1118L381.362 26.2799L378.205 21.9969C378.205 21.9969 387.326 27.0585 387.677 31.3415C388.028 35.6243 390.698 39.6826 390.698 39.6826C390.698 39.6826 397.851 19.6608 387.677 13.8205Z" fill="#2F2E41"/>
<path d="M387.326 33.0637C388.592 33.0637 389.618 31.7706 389.618 30.1755C389.618 28.5804 388.592 27.2874 387.326 27.2874C386.06 27.2874 385.034 28.5804 385.034 30.1755C385.034 31.7706 386.06 33.0637 387.326 33.0637Z" fill="#E9C1A1"/>
<path d="M94.7215 170.076H24.0573V150.115H60.9428L94.7215 170.076Z" fill="#4F47C8"/>
<path d="M23.8633 167.336V225.655H253.328V167.336H23.8633ZM113.359 215.87H38.8115V207.65H113.359V215.87ZM238.38 200.605H38.8115V192.386H238.38V200.605ZM238.38 185.341H38.8115V177.121H238.38V185.341Z" fill="#343D68"/>
<path d="M94.7215 75.7493H24.0573V55.7878H60.9428L94.7215 75.7493Z" fill="#4F47C8"/>
<path d="M23.8633 74.1835V132.502H253.328V74.1835H23.8633ZM113.359 122.717H38.8115V114.498H113.359V122.717ZM156.456 107.452H38.8115V99.233H156.456L156.456 107.452ZM238.38 92.1879H38.8115V83.9685H238.38V92.1879Z" fill="#343D68"/>
<path d="M94.7215 262.446H24.0573V242.485H60.9428L94.7215 262.446Z" fill="#4F47C8"/>
<path d="M23.8633 258.532V316.851H253.328V258.532H23.8633ZM156.456 307.066H38.8115V298.846H156.456V307.066ZM156.456 291.801H38.8115V283.582H156.456V291.801ZM238.38 276.537H38.8115V268.317H238.38V276.537Z" fill="#343D68"/>
<path d="M318.363 119.586H285.748V86.7083H307.88V87.491H286.525V118.803H317.586V103.147H318.363V119.586Z" fill="#343D68"/>
<path d="M301.888 111.01C301.134 108.767 291.683 101.141 297.474 99.8592L302.224 106.243L324.059 84.2315L326.256 86.4453L301.888 111.01Z" fill="#4F47C8"/>
<path d="M318.363 212.739H285.748V179.861H307.88V180.644H286.525V211.956H317.586V196.3H318.363V212.739Z" fill="#343D68"/>
<path d="M301.888 204.163C301.134 201.92 291.683 194.294 297.474 193.012L302.224 199.396L324.059 177.384L326.256 179.598L301.888 204.163Z" fill="#4F47C8"/>
<path d="M318.363 305.5H285.748V272.623H307.88V273.405H286.525V304.717H317.586V289.061H318.363V305.5Z" fill="#343D68"/>
<path d="M301.888 296.924C301.134 294.681 291.683 287.055 297.474 285.773L302.224 292.157L324.059 270.146L326.256 272.36L301.888 296.924Z" fill="#4F47C8"/>
</g>
<defs>
<clipPath id="clip0_1_4735">
<rect width="511" height="414" fill="white"/>
</clipPath>
</defs>
</svg>
