<!--header-->

<svg width="25" height="23" viewBox="0 0 25 23" fill="none" xmlns="http://www.w3.org/2000/svg">
<g id="gears" >
<g id="Group">
<g id="bigg">
<g id="Group 15">
<path id="big-gear" d="M14.566 11.7999L13.6247 10.9443C13.7274 10.7522 13.8173 10.5548 13.8942 10.3529H15.2253C15.6627 10.3529 16.0175 10.0305 16.0175 9.63275V7.52167C16.0175 7.12402 15.6628 6.80153 15.2253 6.80153H13.8941C13.8173 6.59965 13.7273 6.40233 13.6247 6.21023L14.566 5.35447C14.8754 5.07326 14.8754 4.61728 14.566 4.33607L12.924 2.84333C12.6146 2.56219 12.1132 2.56219 11.8038 2.84333L10.8624 3.69908C10.6511 3.60579 10.4341 3.52395 10.212 3.45416V2.24395C10.212 1.8463 9.85733 1.5238 9.41984 1.5238H7.09766C6.66024 1.5238 6.3055 1.84623 6.3055 2.24395V3.45416C6.08343 3.52402 5.86638 3.60571 5.65507 3.69908L4.71382 2.84333C4.56529 2.7083 4.36376 2.63242 4.15366 2.63242C3.94356 2.63242 3.7421 2.7083 3.5935 2.84333L1.95139 4.33607C1.80287 4.47109 1.71939 4.65431 1.71939 4.84531C1.71939 5.03631 1.80287 5.21945 1.95139 5.35455L2.89273 6.21031C2.7901 6.40233 2.70008 6.59965 2.62331 6.8016H1.29216C0.854667 6.8016 0.5 7.12402 0.5 7.52167V9.63282C0.5 10.0305 0.854667 10.353 1.29216 10.353H2.62331C2.70024 10.5548 2.7901 10.7522 2.89281 10.9443L1.95147 11.8C1.64214 12.0812 1.64214 12.5372 1.95147 12.8184L3.5935 14.3112C3.90291 14.5922 4.40432 14.5924 4.71374 14.3112L5.65507 13.4554C5.8663 13.5488 6.08343 13.6306 6.3055 13.7004V14.9106C6.3055 15.3083 6.66016 15.6308 7.09766 15.6308H9.41992C9.85733 15.6308 10.2121 15.3083 10.2121 14.9106V13.7004C10.4341 13.6305 10.6512 13.5488 10.8625 13.4554L11.8038 14.3112C12.1133 14.5923 12.6147 14.5923 12.9241 14.3112L14.5661 12.8184C14.8754 12.5371 14.8754 12.0812 14.566 11.7999ZM12.5265 9.47172C12.4174 9.9036 12.2309 10.3129 11.9722 10.6881C11.776 10.9725 11.8222 11.3424 12.0833 11.5797L12.8857 12.3092L12.3639 12.7836L11.5614 12.0541C11.3002 11.8167 10.8935 11.775 10.5806 11.953C10.1677 12.1883 9.71762 12.3579 9.24279 12.4569C8.88287 12.532 8.62784 12.8232 8.62784 13.1588V14.1905H7.8899V13.1588C7.8899 12.8232 7.63487 12.5321 7.27495 12.4569C6.80012 12.3579 6.35002 12.1883 5.93709 11.953C5.62453 11.775 5.21749 11.8166 4.95632 12.0541L4.15382 12.7836L3.63204 12.3092L4.43446 11.5797C4.69556 11.3424 4.74162 10.9725 4.54558 10.6881C4.28683 10.3129 4.10032 9.9036 3.99123 9.47172C3.90865 9.14459 3.5884 8.91275 3.21919 8.91275H2.08424V8.24189H3.21895C3.58808 8.24189 3.90832 8.01005 3.99099 7.683C4.10016 7.25104 4.28659 6.84186 4.54533 6.46669C4.74154 6.18232 4.69539 5.81236 4.4343 5.57501L3.6318 4.84546L4.15366 4.37111L4.95608 5.10066C5.21717 5.33809 5.6242 5.37974 5.93693 5.2016C6.3497 4.96637 6.7998 4.7969 7.27471 4.6978C7.63463 4.62272 7.88966 4.33152 7.88966 3.99587V2.9641H8.6276V3.99572C8.6276 4.33137 8.88263 4.6225 9.24255 4.69765C9.71754 4.79675 10.1676 4.96623 10.5803 5.20145C10.8931 5.37975 11.3002 5.33802 11.5612 5.10052L12.3637 4.37097L12.8855 4.84531L12.0829 5.57486C11.8219 5.81229 11.7758 6.18217 11.9719 6.46654C12.2307 6.84171 12.4171 7.25097 12.5263 7.68285C12.6088 8.0099 12.9292 8.24175 13.2983 8.24175H14.433V8.9126H13.2983C12.9293 8.91267 12.6091 9.14452 12.5265 9.47172Z" fill="#E84949"/>
</g>


<path id="Vector" d="M8.25871 5.81006C6.58025 5.81006 5.21475 7.05142 5.21475 8.57729C5.21475 10.1032 6.58025 11.3445 8.25871 11.3445C9.93718 11.3445 11.3027 10.1032 11.3027 8.57729C11.3027 7.05142 9.93726 5.81006 8.25871 5.81006ZM8.25871 9.90431C7.45378 9.90431 6.79899 9.30905 6.79899 8.57729C6.79899 7.84554 7.45386 7.25028 8.25871 7.25028C9.06356 7.25028 9.71843 7.84554 9.71843 8.57729C9.71843 9.30905 9.06364 9.90431 8.25871 9.90431Z" fill="#E84949"/>
</g>
<g id="small">
<g id="Group 14">
<path id="small-gear" d="M23.9811 16.8324C24.3253 16.7746 24.5528 16.4742 24.4893 16.1614L24.1904 14.6882C24.16 14.5379 24.065 14.4049 23.9267 14.3183C23.7882 14.2317 23.6175 14.1985 23.4523 14.2262L22.5731 14.3736C22.505 14.2672 22.4312 14.1639 22.3523 14.0638L22.8592 13.3945C22.9545 13.2686 22.9909 13.1135 22.9604 12.9633C22.93 12.813 22.835 12.6799 22.6966 12.5933L21.3394 11.7438C21.0514 11.5635 20.6566 11.6294 20.4581 11.8915L19.9512 12.5609C19.8202 12.5295 19.6877 12.5038 19.5541 12.4839L19.3919 11.6847C19.3284 11.3719 18.9975 11.1648 18.6538 11.2227L17.0333 11.4945C16.868 11.5222 16.7217 11.6085 16.6264 11.7343C16.5311 11.8602 16.4947 12.0152 16.5251 12.1655L16.6873 12.9647C16.5702 13.0267 16.4565 13.0937 16.3465 13.1655L15.6102 12.7047C15.4717 12.6181 15.3011 12.5851 15.1359 12.6126C14.9706 12.6403 14.8242 12.7266 14.7289 12.8525L13.7945 14.0864C13.6991 14.2122 13.6628 14.3673 13.6932 14.5175C13.7237 14.6678 13.8186 14.8009 13.9571 14.8875L14.6933 15.3483C14.6587 15.4674 14.6305 15.5878 14.6086 15.7094L13.7294 15.8568C13.5641 15.8845 13.4177 15.9708 13.3225 16.0966C13.2271 16.2225 13.1908 16.3776 13.2212 16.5278L13.5202 18.0009C13.5837 18.3138 13.9141 18.521 14.2583 18.4629L15.1375 18.3155C15.2056 18.4219 15.2794 18.5253 15.3583 18.6253L14.8514 19.2946C14.7562 19.4205 14.7197 19.5755 14.7502 19.7258C14.7807 19.8761 14.8756 20.0091 15.014 20.0958L16.3713 20.9453C16.6593 21.1256 17.0541 21.0596 17.2525 20.7975L17.7594 20.1282C17.8904 20.1596 18.0228 20.1852 18.1566 20.2052L18.3188 21.0044C18.3751 21.2819 18.6415 21.4761 18.9412 21.4761C18.9794 21.4761 19.0181 21.473 19.0569 21.4665L20.6773 21.1947C20.8426 21.1671 20.989 21.0807 21.0842 20.955C21.1795 20.8291 21.216 20.674 21.1855 20.5237L21.0233 19.7245C21.1404 19.6625 21.2541 19.5955 21.3642 19.5237L22.1003 19.9845C22.2388 20.0712 22.4093 20.1044 22.5747 20.0766C22.74 20.0489 22.8863 19.9626 22.9816 19.8367L23.9161 18.6029C24.1145 18.3408 24.0418 17.9822 23.7536 17.8018L23.0173 17.3409C23.0519 17.2218 23.0801 17.1014 23.102 16.9799L23.9811 16.8324ZM22.4066 15.9249C22.116 15.9736 21.9011 16.1984 21.8884 16.4667C21.8739 16.7734 21.8034 17.0735 21.679 17.359C21.5701 17.6086 21.6654 17.8935 21.9087 18.0458L22.5129 18.4241L22.2972 18.7089L21.6931 18.3308C21.4496 18.1784 21.1229 18.1992 20.9053 18.3807C20.6564 18.5882 20.373 18.7552 20.063 18.877C19.7918 18.9835 19.6375 19.2463 19.6911 19.5103L19.8242 20.1664L19.4501 20.2291L19.3171 19.5732C19.2635 19.3091 19.0163 19.1136 18.7212 19.1021C18.3836 19.0888 18.0533 19.0248 17.7394 18.9117C17.6632 18.8843 17.5843 18.8711 17.5061 18.8711C17.3024 18.8711 17.105 18.9608 16.984 19.1206L16.568 19.6698L16.2546 19.4737L16.6706 18.9245C16.8381 18.7033 16.8153 18.4063 16.6156 18.2084C16.3874 17.982 16.2037 17.7244 16.0696 17.4425C15.9524 17.196 15.6627 17.0557 15.373 17.1045L14.6514 17.2255L14.5823 16.8855L15.304 16.7645C15.5946 16.7158 15.8095 16.491 15.8221 16.2227C15.8367 15.916 15.9071 15.6158 16.0316 15.3302C16.1404 15.0806 16.0451 14.7958 15.8017 14.6434L15.1975 14.2653L15.4133 13.9804L16.0175 14.3586C16.261 14.511 16.5875 14.4902 16.8052 14.3087C17.0542 14.1011 17.3376 13.9341 17.6477 13.8123C17.9188 13.7057 18.073 13.443 18.0194 13.179L17.8863 12.523L18.2604 12.4603L18.3935 13.1162C18.4471 13.3804 18.6943 13.5758 18.9895 13.5873C19.3268 13.6005 19.657 13.6645 19.971 13.7777C20.2459 13.8767 20.5591 13.7899 20.7265 13.5688L21.1426 13.0195L21.456 13.2156L21.04 13.7649C20.8724 13.9862 20.8952 14.2832 21.0949 14.4811C21.3232 14.7073 21.5069 14.9649 21.6409 15.2468C21.7579 15.4932 22.0473 15.6336 22.3375 15.5848L23.0591 15.4638L23.1281 15.8039L22.4066 15.9249Z" fill="#E84949"/>
</g>
<path id="Vector_2" d="M20.1208 14.6737C19.6299 14.3664 19.0365 14.2514 18.4504 14.3496C17.8642 14.4479 17.3552 14.7479 17.0172 15.1942C16.3193 16.1156 16.5762 17.3813 17.5897 18.0157C17.9753 18.2571 18.4158 18.3728 18.8519 18.3728C19.5621 18.3728 20.261 18.0659 20.6934 17.4951C21.3911 16.5738 21.1343 15.308 20.1208 14.6737ZM19.6495 16.8417C19.348 17.2398 18.7464 17.3407 18.3086 17.0667C17.8707 16.7926 17.7596 16.2457 18.0611 15.8477C18.0612 15.8476 18.0612 15.8476 18.0612 15.8476C18.2071 15.6547 18.4271 15.5252 18.6804 15.4827C18.7393 15.4729 18.7986 15.4679 18.8573 15.4679C19.0507 15.4679 19.2394 15.5209 19.4021 15.6227C19.84 15.8968 19.951 16.4437 19.6495 16.8417Z" fill="#E84949"/>
</g>
</g>
</g>

<!--main-->

<g id="zigzags">
	<path d="M39.8303 1.7771L27.5354 17.4648L39.8303 35.0448" stroke="#4F47C8" stroke-width="3"/>
<path d="M39.8302 33.4792L27.5354 49.167L39.8302 66.747" stroke="#4F47C8" stroke-width="3"/>
<path d="M39.8302 67.1383L27.5354 82.826L39.8302 100.406" stroke="#4F47C8" stroke-width="3"/>
<path d="M27.5354 1.7771L15.2406 17.4648L27.5354 35.0448" stroke="#4F47C8" stroke-width="3"/>
<path d="M27.5355 33.4792L15.2407 49.167L27.5355 66.747" stroke="#4F47C8" stroke-width="3"/>
<path d="M27.5355 67.1383L15.2407 82.826L27.5355 100.406" stroke="#4F47C8" stroke-width="3"/>
<path d="M14.2948 1.7771L1.99992 17.4648L14.2948 35.0448" stroke="#4F47C8" stroke-width="3"/>
<path d="M14.2947 33.4792L1.99981 49.167L14.2947 66.747" stroke="#4F47C8" stroke-width="3"/>
<path d="M14.2947 67.1383L1.99981 82.826L14.2947 100.406" stroke="#4F47C8" stroke-width="3"/>
</g>

<g id="plus">
<line x1="12.438" y1="27.0216" x2="12.438" y2="-2.47955e-05" stroke="#E84949" stroke-width="3"/>
<line x1="0.427246" y1="12.0109" x2="26.7733" y2="12.0109" stroke="#E84949" stroke-width="3"/>
</g>

<g id="cube">
<path d="M4.68244 10.9993L20.7335 1.73217L36.7846 10.9993V29.5334L20.7335 38.8005L4.68244 29.5334L4.68244 10.9993Z" stroke="#4F47C8" stroke-width="3"/>
<line y1="-1.5" x2="19.5303" y2="-1.5" transform="matrix(0.869285 0.494311 -0.486898 0.873459 4.21857 10.9807)" stroke="#4F47C8" stroke-width="3"/>
<line y1="-1.5" x2="20.2702" y2="-1.5" transform="matrix(0.0197981 0.999804 -0.999796 0.0201959 20.1316 19.4558)" stroke="#4F47C8" stroke-width="3"/>
<line y1="-1.5" x2="20.0918" y2="-1.5" transform="matrix(0.865971 -0.500095 0.492651 0.870227 20.7014 20.9816)" stroke="#4F47C8" stroke-width="3"/>
</g>
	<g id="ellipse">
		<circle cx="11.3725" cy="11.4744" r="9.30865" stroke="#4F47C8" stroke-width="3"/>

	</g>

<!--skills-->

<g id="html5">
<path d="M37.2872 8.56555L34.4741 40.0797L21.829 43.5853L9.21871 40.0845L6.40851 8.56555H37.2872Z" fill="#E44D26"/>
<path d="M21.8478 40.9057L32.0657 38.073L34.4696 11.1426H21.8478V40.9057Z" fill="#F16529"/>
<path d="M16.3792 18.8741H21.8478V15.0084H12.1545L12.247 16.0455L13.1972 26.6983H21.8478V22.8326H16.7325L16.3792 18.8741ZM17.2505 28.6312H13.3699L13.9114 34.7009L21.83 36.899L21.8478 36.8941V32.8722L21.8309 32.8767L17.5257 31.7142L17.2505 28.6312Z" fill="#EBEBEB"/>
<path d="M9.28137 0H11.2459V1.94088H13.043V0H15.0076V5.87749H13.0431V3.90937H11.246V5.87749H9.28149V0H9.28137ZM17.5908 1.94912H15.8616V0H21.2859V1.94912H19.5557V5.87749H17.5912V1.94912H17.5911H17.5908ZM22.1468 0H24.1951L25.4552 2.06519L26.714 0H28.7632V5.87749H26.8067V2.96428L25.4552 5.05405H25.4213L24.0689 2.96428V5.87749H22.1468V0ZM29.7409 0H31.706V3.93479H34.4686V5.87749H29.7407V0H29.7409Z" fill="black"/>
<path d="M21.8345 26.6983H26.5946L26.1458 31.7118L21.8344 32.8755V36.8972L29.7592 34.7009L29.8173 34.0478L30.7259 23.8707L30.8202 22.8326H21.8345V26.6983ZM21.8345 18.8647V18.8741H31.1719L31.2494 18.0053L31.4256 16.0455L31.518 15.0084H21.8345V18.8648V18.8647Z" fill="white"/>
</g>

<g id="css3">
<path d="M39.3687 45.5356L26.1737 49.0885L12.9785 45.5356L9.93365 12.5481H42.414L39.3687 45.5356Z" fill="#2062AF"/>
<path d="M26.1736 15.22V46.2547L26.2034 46.2629L36.8816 43.3875L39.3463 15.22H26.1736Z" fill="#3C9CD7"/>
<path d="M18.685 7.70157V5.73816H21.5496V3.58972H16.5366V9.66207H21.5496V7.70157H18.685ZM26.7027 5.73816H28.7055V3.58972H23.6919V5.73816C24.3627 6.4089 24.7125 6.72994 25.6826 7.70002C25.1155 7.70002 23.6919 7.70205 23.6919 7.70195V9.66207H28.7055V7.70157L26.7027 5.73816ZM33.8085 5.73816H35.8112V3.58972H30.7974V5.73816C31.4682 6.4089 31.8182 6.72994 32.7883 7.70002C32.2214 7.70002 30.7974 7.70205 30.7974 7.70195V9.66207H35.8113V7.70157L33.8085 5.73816Z" fill="black"/>
<path d="M26.1619 23.4682L16.7178 27.4014L17.031 31.2956L26.1619 27.3916L35.8748 23.2388L36.2775 19.2552L26.1619 23.4682Z" fill="white"/>
<path d="M16.7177 27.4015L17.0309 31.2956L26.1618 27.3916V23.4683L16.7177 27.4015Z" fill="url(#paint0_linear_1_4709)"/>
<path d="M36.2775 19.2554L26.1619 23.4683V27.3916L35.8748 23.2389L36.2775 19.2554Z" fill="url(#paint1_linear_1_4709)"/>
<path d="M16.7322 27.4015L17.0455 31.2957L31.0557 31.3403L30.7423 36.5325L26.1322 37.8304L21.7004 36.7114L21.4319 33.4887H17.3141L17.8512 39.7103L26.1769 42.172L34.4575 39.7549L35.5318 27.4015H16.7322Z" fill="url(#paint2_linear_1_4709)"/>
<path opacity="0.05" d="M26.1619 27.4015H16.7178L17.031 31.2957L26.1619 31.3248V27.4015ZM26.1619 37.818L26.1172 37.8305L21.686 36.7115L21.4175 33.4888H17.2997L17.8368 39.7104L26.1619 42.1721V37.818Z" fill="black"/>
<path d="M15.8673 19.2554H36.2776L35.8749 23.239H16.3596L15.8673 19.2554Z" fill="url(#paint3_linear_1_4709)"/>
<path opacity="0.05" d="M26.1619 19.2554H15.8673L16.3596 23.239H26.1619V19.2554Z" fill="black"/>
<defs>
<linearGradient id="paint0_linear_1_4709" x1="21.4398" y1="31.2957" x2="21.4398" y2="23.4684" gradientUnits="userSpaceOnUse">
<stop offset="0.387" stop-color="#D1D3D4" stop-opacity="0"/>
<stop offset="1" stop-color="#D1D3D4"/>
</linearGradient>
<linearGradient id="paint1_linear_1_4709" x1="31.2196" y1="27.3917" x2="31.2196" y2="19.2555" gradientUnits="userSpaceOnUse">
<stop offset="0.387" stop-color="#D1D3D4" stop-opacity="0"/>
<stop offset="1" stop-color="#D1D3D4"/>
</linearGradient>
<linearGradient id="paint2_linear_1_4709" x1="16.7322" y1="34.7868" x2="35.5317" y2="34.7868" gradientUnits="userSpaceOnUse">
<stop stop-color="#E8E7E5"/>
<stop offset="1" stop-color="white"/>
</linearGradient>
<linearGradient id="paint3_linear_1_4709" x1="15.8673" y1="21.2472" x2="36.2775" y2="21.2472" gradientUnits="userSpaceOnUse">
<stop stop-color="#E8E7E5"/>
<stop offset="1" stop-color="white"/>
</linearGradient>
</defs>
</g>



<g id="bootstrap4">
<path d="M0.260956 34.5054C0.260956 37.2922 2.51997 39.5509 5.30649 39.5509H34.3457C37.1327 39.5509 39.3914 37.2919 39.3914 34.5054V5.46616C39.3914 2.67918 37.1324 0.420471 34.3459 0.420471H5.30664C2.51967 0.420471 0.260956 2.67949 0.260956 5.466V34.5052V34.5054Z" fill="#563D7C"/>
<path d="M16.4876 17.7293V12.1879H21.3653C21.8299 12.1879 22.2778 12.2266 22.7091 12.3041C23.1405 12.3814 23.5222 12.5196 23.854 12.7188C24.1857 12.9179 24.4512 13.1944 24.6504 13.5483C24.8494 13.9023 24.9491 14.3558 24.9491 14.9087C24.9491 15.9042 24.6504 16.6233 24.053 17.0656C23.4558 17.5081 22.6926 17.7293 21.7634 17.7293H16.4876ZM11.2779 8.13959V31.8318H22.759C23.8209 31.8318 24.8551 31.6992 25.8616 31.4337C26.8681 31.1682 27.764 30.759 28.5494 30.2059C29.3346 29.6529 29.9596 28.9394 30.4241 28.0657C30.8888 27.1918 31.121 26.1576 31.121 24.9631C31.121 23.4809 30.7615 22.2145 30.0426 21.1638C29.3236 20.1129 28.234 19.3774 26.774 18.957C27.8358 18.4483 28.6379 17.7956 29.1799 16.9993C29.7218 16.2029 29.9928 15.2075 29.9928 14.0128C29.9928 12.9068 29.8103 11.9777 29.4452 11.2255C29.0802 10.4735 28.5659 9.87065 27.9022 9.41714C27.2387 8.96362 26.4423 8.63728 25.5131 8.43826C24.584 8.23909 23.5553 8.13959 22.4271 8.13959H11.2779ZM16.4876 27.7835V21.2798H22.1616C23.2898 21.2798 24.1969 21.5396 24.8827 22.0596C25.5684 22.5795 25.9114 23.4477 25.9114 24.6644C25.9114 25.2839 25.8063 25.7926 25.5961 26.1908C25.3859 26.589 25.1039 26.9043 24.7499 27.1365C24.396 27.3688 23.9867 27.5347 23.5222 27.6343C23.0575 27.7337 22.571 27.7835 22.0621 27.7835H16.4876Z" fill="white"/>
</g>

<g id="project_completed">
	<path d="M511 384.682H0V385.88H511V384.682Z" fill="#343D68"/>
<path d="M320.611 179.535C320.611 179.535 297.691 197.689 309.151 201.815C320.611 205.941 327.979 186.962 327.979 186.962L320.611 179.535Z" fill="#E9C1A1"/>
<path d="M321.43 172.933L316.518 181.185C316.518 181.185 324.704 181.185 326.341 193.563L332.89 185.311L321.43 172.933Z" fill="#CFCCE0"/>
<path d="M430.302 361.077L431.121 385.833L421.297 391.609L417.205 389.134L418.023 361.077H430.302Z" fill="#E9C1A1"/>
<path d="M372.182 354.475L373.819 380.882L350.899 390.784L352.536 376.756C352.536 376.756 359.085 366.028 357.448 354.475H372.182Z" fill="#E9C1A1"/>
<path d="M407.381 155.605C407.381 155.605 420.479 190.263 422.935 211.718C425.39 233.172 429.483 290.111 429.483 290.111L437.669 363.553L414.749 366.853L404.926 292.586L382.824 219.144L377.912 292.586L373.819 359.427L352.536 360.252L350.899 290.936L341.895 202.64L346.806 160.556L407.381 155.605Z" fill="#2F2E41"/>
<path d="M419.66 387.483C419.66 387.483 421.003 373.624 430.973 381.379L432.758 380.056L440.943 398.211C440.943 398.211 450.766 412.239 433.576 413.889C416.386 415.54 418.023 398.211 418.023 398.211L416.386 390.784L417.204 385.92L419.66 387.483Z" fill="#2F2E41"/>
<path d="M372.182 370.979C374.197 372.141 375.867 373.824 377.019 375.856C378.17 377.887 378.761 380.192 378.731 382.532C378.731 390.784 377.912 391.609 377.912 391.609L365.634 394.91C365.634 394.91 357.448 394.085 352.536 399.036C347.625 403.987 323.067 407.288 323.067 400.686C323.067 394.085 343.532 383.357 343.532 383.357C343.532 383.357 349.609 373.011 353.938 374.058C358.266 375.105 359.904 376.756 359.904 377.581C359.904 378.406 357.448 384.182 357.448 384.182C357.448 384.182 371.364 380.882 372.182 370.979Z" fill="#2F2E41"/>
<path d="M370.545 54.106C381.847 54.106 391.01 44.8698 391.01 33.4763C391.01 22.0828 381.847 12.8465 370.545 12.8465C359.243 12.8465 350.08 22.0828 350.08 33.4763C350.08 44.8698 359.243 54.106 370.545 54.106Z" fill="#E9C1A1"/>
<path d="M385.689 38.84L394.693 59.4698L370.136 94.953C370.136 94.953 368.499 56.169 363.587 49.5675C358.676 42.966 385.689 38.84 385.689 38.84Z" fill="#E9C1A1"/>
<path d="M374.229 81.7501L378.322 71.0227L381.596 71.8476L385.689 68.5468L391.419 50.3928L399.605 56.169L410.246 164.269L343.941 165.919L352.946 90.827L361.132 69.3723L367.04 61.4977L370.954 73.498L374.229 81.7501Z" fill="#CFCCE0"/>
<path d="M393.056 127.961L395.561 53.3156C395.561 53.3156 400.423 53.6935 402.061 56.1691C403.698 58.6446 430.711 63.5958 430.711 63.5958L425.8 140.339C425.8 140.339 446.264 201.403 438.897 204.703C431.53 208.004 418.432 207.179 418.432 207.179L393.056 127.961Z" fill="#575A89"/>
<path d="M353.355 118.471L362.039 68.163L342.713 81.3373L347.625 117.646L343.532 142.401C343.532 142.401 327.979 210.892 332.89 213.368C337.802 215.843 343.532 213.368 343.532 213.368L353.355 144.052V118.471Z" fill="#575A89"/>
<path d="M348.443 79.687L342.713 81.3374L340.257 114.345L336.164 143.227L316.518 178.71C316.518 178.71 326.341 172.108 330.434 191.088L352.07 153.115L348.443 79.687Z" fill="#575A89"/>
<path d="M412.293 172.933C412.293 172.933 389.373 191.088 400.833 195.214C412.293 199.34 419.66 180.36 419.66 180.36L412.293 172.933Z" fill="#E9C1A1"/>
<path d="M426.209 182.011L418.842 191.088L409.019 173.759L413.111 166.332L426.209 182.011Z" fill="#CFCCE0"/>
<path d="M424.572 66.4839L431.12 63.1832C431.12 63.1832 436.032 69.7847 436.85 75.561C437.669 81.3374 441.762 88.7641 441.762 92.89C441.762 97.016 453.222 135.8 453.222 135.8L427.027 189.437C427.027 189.437 421.297 169.633 409.019 167.982L429.483 139.101L418.023 118.471L424.572 66.4839Z" fill="#575A89"/>
<path d="M387.677 13.8205L391.536 12.2631C391.536 12.2631 383.467 3.30794 372.241 4.08669L375.398 0.58246C375.398 0.58246 367.68 -2.53235 360.664 5.64407C356.975 9.94222 352.708 14.9945 350.047 20.6858H345.914L347.639 24.5144L341.602 28.3431L347.799 27.6554C347.429 29.752 347.373 31.8924 347.63 34.0059C347.896 36.12 348.967 38.0473 350.615 39.3811C350.615 39.3811 355.401 29.3947 355.401 27.8372V31.7308C355.401 31.7308 359.26 28.2266 359.26 25.8905L361.365 28.616L362.418 24.333L375.398 28.616L373.293 25.1118L381.362 26.2799L378.205 21.9969C378.205 21.9969 387.326 27.0585 387.677 31.3415C388.028 35.6243 390.698 39.6826 390.698 39.6826C390.698 39.6826 397.851 19.6608 387.677 13.8205Z" fill="#2F2E41"/>
<path d="M387.326 33.0637C388.592 33.0637 389.618 31.7706 389.618 30.1755C389.618 28.5804 388.592 27.2874 387.326 27.2874C386.06 27.2874 385.034 28.5804 385.034 30.1755C385.034 31.7706 386.06 33.0637 387.326 33.0637Z" fill="#E9C1A1"/>
<path d="M94.7215 170.076H24.0573V150.115H60.9428L94.7215 170.076Z" fill="#4F47C8"/>
<path d="M23.8633 167.336V225.655H253.328V167.336H23.8633ZM113.359 215.87H38.8115V207.65H113.359V215.87ZM238.38 200.605H38.8115V192.386H238.38V200.605ZM238.38 185.341H38.8115V177.121H238.38V185.341Z" fill="#343D68"/>
<path d="M94.7215 75.7493H24.0573V55.7878H60.9428L94.7215 75.7493Z" fill="#4F47C8"/>
<path d="M23.8633 74.1835V132.502H253.328V74.1835H23.8633ZM113.359 122.717H38.8115V114.498H113.359V122.717ZM156.456 107.452H38.8115V99.233H156.456L156.456 107.452ZM238.38 92.1879H38.8115V83.9685H238.38V92.1879Z" fill="#343D68"/>
<path d="M94.7215 262.446H24.0573V242.485H60.9428L94.7215 262.446Z" fill="#4F47C8"/>
<path d="M23.8633 258.532V316.851H253.328V258.532H23.8633ZM156.456 307.066H38.8115V298.846H156.456V307.066ZM156.456 291.801H38.8115V283.582H156.456V291.801ZM238.38 276.537H38.8115V268.317H238.38V276.537Z" fill="#343D68"/>
<path d="M318.363 119.586H285.748V86.7083H307.88V87.491H286.525V118.803H317.586V103.147H318.363V119.586Z" fill="#343D68"/>
<path d="M301.888 111.01C301.134 108.767 291.683 101.141 297.474 99.8592L302.224 106.243L324.059 84.2315L326.256 86.4453L301.888 111.01Z" fill="#4F47C8"/>
<path d="M318.363 212.739H285.748V179.861H307.88V180.644H286.525V211.956H317.586V196.3H318.363V212.739Z" fill="#343D68"/>
<path d="M301.888 204.163C301.134 201.92 291.683 194.294 297.474 193.012L302.224 199.396L324.059 177.384L326.256 179.598L301.888 204.163Z" fill="#4F47C8"/>
<path d="M318.363 305.5H285.748V272.623H307.88V273.405H286.525V304.717H317.586V289.061H318.363V305.5Z" fill="#343D68"/>
<path d="M301.888 296.924C301.134 294.681 291.683 287.055 297.474 285.773L302.224 292.157L324.059 270.146L326.256 272.36L301.888 296.924Z" fill="#4F47C8"/>
</g>

	<g id="blob">
		<path d="M285.347 245.607C312.599 224.873 334.881 202.11 349.228 173.07C363.495 143.966 369.907 108.585 352.434 83.6656C334.881 58.6832 293.523 44.1629 249.36 28.3112C205.276 12.396 158.388 -4.91418 117.511 2.06061C76.6337 8.97198 41.8481 40.1683 21.5699 74.6618C1.37176 109.219 -4.23882 147.073 3.05494 183.722C10.4289 220.371 30.7071 255.753 64.6912 275.536C98.5951 295.319 146.125 299.503 186.04 292.275C225.955 284.983 258.176 266.342 285.347 245.607Z" fill="#F2F2F2"/>

	</g>

	<g id="polygon">
		<path d="M31 2.02073C31.9282 1.48483 33.0718 1.48483 34 2.02073L62.476 18.4613C63.4042 18.9972 63.976 19.9876 63.976 21.0594V53.9406C63.976 55.0124 63.4042 56.0028 62.476 56.5387L34 72.9793C33.0718 73.5152 31.9282 73.5152 31 72.9793L2.52405 56.5387C1.59585 56.0028 1.02405 55.0124 1.02405 53.9406V21.0594C1.02405 19.9876 1.59584 18.9972 2.52405 18.4613L31 2.02073Z" stroke="url(#paint0_linear_1_4699)" stroke-width="2"/>
		<defs>
			<linearGradient id="paint0_linear_1_4699" x1="64.6429" y1="75" x2="-14.8644" y2="24.6315" gradientUnits="userSpaceOnUse">
				<stop stop-color="#0D54BE"/>
				<stop offset="1" stop-color="#20ECD3"/>
			</linearGradient>
		</defs>
	</g>


<!--projects-->
	<g id="projects_gear">
		<g clip-path="url(#clip0_1_4810)">
			<path d="M16.2726 12.3301L15.2371 11.3888C15.3501 11.1775 15.4491 10.9604 15.5336 10.7383H16.9979C17.479 10.7383 17.8692 10.3836 17.8692 9.94615V7.62396C17.8692 7.18655 17.4791 6.8318 16.9979 6.8318H15.5335C15.449 6.60974 15.35 6.39269 15.2371 6.18138L16.2726 5.24004C16.6129 4.93071 16.6129 4.42913 16.2726 4.1198L14.4664 2.47778C14.126 2.16853 13.5745 2.16853 13.2341 2.47778L12.1987 3.41911C11.9662 3.31649 11.7275 3.22647 11.4832 3.1497V1.81847C11.4832 1.38105 11.0931 1.02631 10.6118 1.02631H8.05741C7.57626 1.02631 7.18603 1.38097 7.18603 1.81847V3.1497C6.94177 3.22655 6.70301 3.31641 6.47057 3.41911L5.43519 2.47778C5.27181 2.32926 5.05012 2.24578 4.81901 2.24578C4.5879 2.24578 4.3663 2.32926 4.20283 2.47778L2.39652 4.1198C2.23314 4.26833 2.14132 4.46986 2.14132 4.67996C2.14132 4.89006 2.23314 5.09152 2.39652 5.24012L3.43199 6.18146C3.3191 6.39269 3.22008 6.60974 3.13563 6.83188H1.67137C1.19012 6.83188 0.799988 7.18655 0.799988 7.62396V9.94623C0.799988 10.3836 1.19012 10.7384 1.67137 10.7384H3.13563C3.22025 10.9604 3.3191 11.1775 3.43208 11.3889L2.39661 12.3301C2.05634 12.6395 2.05634 13.1411 2.39661 13.4504L4.20283 15.0924C4.54319 15.4016 5.09474 15.4017 5.4351 15.0924L6.47057 14.1511C6.70292 14.2538 6.94177 14.3438 7.18603 14.4206V15.7518C7.18603 16.1892 7.57617 16.544 8.05741 16.544H10.6119C11.0931 16.544 11.4833 16.1893 11.4833 15.7518V14.4206C11.7275 14.3437 11.9663 14.2538 12.1987 14.1511L13.2342 15.0924C13.5746 15.4017 14.1261 15.4017 14.4665 15.0924L16.2727 13.4504C16.613 13.141 16.613 12.6394 16.2726 12.3301ZM14.0291 9.76901C13.9091 10.2441 13.704 10.6943 13.4194 11.107C13.2036 11.4198 13.2544 11.8268 13.5416 12.0878L14.4243 12.8902L13.8503 13.4121L12.9675 12.6096C12.6803 12.3485 12.2328 12.3026 11.8887 12.4985C11.4345 12.7573 10.9394 12.9438 10.4171 13.0527C10.0211 13.1353 9.74061 13.4556 9.74061 13.8249V14.9596H8.92888V13.8249C8.92888 13.4556 8.64834 13.1354 8.25243 13.0527C7.73012 12.9438 7.23501 12.7573 6.78079 12.4985C6.43697 12.3027 5.98923 12.3484 5.70194 12.6096L4.81919 13.4121L4.24523 12.8902L5.1279 12.0878C5.4151 11.8267 5.46577 11.4198 5.25012 11.107C4.9655 10.6943 4.76034 10.2441 4.64034 9.76901C4.5495 9.40917 4.19723 9.15414 3.7911 9.15414H2.54265V8.41621H3.79083C4.19688 8.41621 4.54914 8.16118 4.64008 7.80142C4.76017 7.32627 4.96523 6.87616 5.24986 6.46348C5.46568 6.15067 5.41492 5.74372 5.12772 5.48263L4.24497 4.68012L4.81901 4.15835L5.70168 4.96085C5.98888 5.22202 6.43661 5.26784 6.78061 5.07188C7.23465 4.81313 7.72977 4.62671 8.25217 4.5177C8.64808 4.43511 8.92861 4.11479 8.92861 3.74558V2.61063H9.74035V3.74542C9.74035 4.11463 10.0209 4.43487 10.4168 4.51754C10.9393 4.62655 11.4343 4.81297 11.8883 5.07172C12.2324 5.26784 12.6802 5.22194 12.9673 4.96069L13.85 4.15819L14.424 4.67996L13.5412 5.48247C13.254 5.74364 13.2034 6.15051 13.4191 6.46332C13.7037 6.876 13.9088 7.32619 14.0289 7.80126C14.1197 8.16101 14.4721 8.41604 14.8781 8.41604H16.1263V9.15398H14.8781C14.4722 9.15406 14.12 9.40909 14.0291 9.76901Z" fill="white" fill-opacity="0.87"/>
			<path d="M9.33456 5.74115C7.48825 5.74115 5.98621 7.10664 5.98621 8.78511C5.98621 10.4636 7.48825 11.8291 9.33456 11.8291C11.1809 11.8291 12.6829 10.4636 12.6829 8.78511C12.6829 7.10664 11.181 5.74115 9.33456 5.74115ZM9.33456 10.2448C8.44914 10.2448 7.72887 9.59004 7.72887 8.78511C7.72887 7.98018 8.44923 7.32539 9.33456 7.32539C10.2199 7.32539 10.9403 7.98018 10.9403 8.78511C10.9403 9.59004 10.22 10.2448 9.33456 10.2448Z" fill="white" fill-opacity="0.87"/>
			<path d="M26.6292 17.8657C27.0078 17.8022 27.2581 17.4718 27.1883 17.1276L26.8595 15.5072C26.8259 15.3419 26.7215 15.1955 26.5693 15.1002C26.4171 15.005 26.2292 14.9685 26.0475 14.999L25.0804 15.1611C25.0055 15.0441 24.9243 14.9304 24.8375 14.8203L25.3951 14.0841C25.4999 13.9456 25.54 13.775 25.5065 13.6097C25.473 13.4444 25.3685 13.2981 25.2163 13.2028L23.7233 12.2683C23.4065 12.0699 22.9723 12.1425 22.7539 12.4308L22.1963 13.1671C22.0522 13.1326 21.9065 13.1044 21.7595 13.0825L21.5811 12.2033C21.5112 11.8592 21.1473 11.6314 20.7691 11.6951L18.9867 11.9941C18.8048 12.0245 18.6438 12.1195 18.539 12.2578C18.4342 12.3963 18.3941 12.5669 18.4276 12.7322L18.606 13.6113C18.4772 13.6796 18.3522 13.7532 18.2311 13.8322L17.4212 13.3253C17.2689 13.23 17.0812 13.1937 16.8995 13.224C16.7176 13.2545 16.5566 13.3494 16.4518 13.4879L15.4239 14.8451C15.319 14.9836 15.279 15.1541 15.3125 15.3194C15.346 15.4847 15.4505 15.6311 15.6028 15.7264L16.4126 16.2332C16.3746 16.3643 16.3436 16.4967 16.3195 16.6304L15.3524 16.7926C15.1705 16.8231 15.0095 16.918 14.9047 17.0564C14.7998 17.1949 14.7598 17.3654 14.7933 17.5307L15.1222 19.1511C15.1921 19.4953 15.5555 19.7232 15.9341 19.6593L16.9012 19.4972C16.9762 19.6142 17.0573 19.728 17.1442 19.838L16.5866 20.5742C16.4818 20.7127 16.4417 20.8832 16.4752 21.0485C16.5087 21.2139 16.6132 21.3602 16.7654 21.4555L18.2584 22.3899C18.5752 22.5883 19.0095 22.5157 19.2277 22.2274L19.7853 21.4912C19.9294 21.5257 20.0751 21.5539 20.2222 21.5759L20.4006 22.455C20.4626 22.7603 20.7556 22.9739 21.0853 22.9739C21.1273 22.9739 21.1699 22.9705 21.2125 22.9633L22.995 22.6644C23.1769 22.6339 23.3379 22.5389 23.4427 22.4006C23.5475 22.2621 23.5875 22.0915 23.554 21.9263L23.3756 21.0471C23.5044 20.9789 23.6295 20.9052 23.7506 20.8262L24.5603 21.3331C24.7127 21.4285 24.9002 21.4649 25.0821 21.4344C25.264 21.4039 25.425 21.309 25.5298 21.1705L26.5577 19.8133C26.776 19.525 26.696 19.1305 26.3789 18.9321L25.5691 18.4251C25.6071 18.2941 25.6381 18.1617 25.6622 18.028L26.6292 17.8657ZM24.8972 16.8675C24.5776 16.9211 24.3411 17.1684 24.3273 17.4635C24.3113 17.8008 24.2338 18.131 24.0969 18.445C23.9771 18.7196 24.0819 19.033 24.3496 19.2005L25.0142 19.6166L24.7769 19.93L24.1123 19.514C23.8445 19.3464 23.4851 19.3692 23.2459 19.5689C22.972 19.7972 22.6603 19.9809 22.3193 20.1149C22.021 20.232 21.8513 20.5211 21.9102 20.8115L22.0566 21.5331L21.6451 21.6021L21.4987 20.8806C21.4398 20.5901 21.1679 20.3751 20.8433 20.3625C20.4719 20.3478 20.1086 20.2774 19.7633 20.153C19.6796 20.1229 19.5927 20.1084 19.5068 20.1084C19.2827 20.1084 19.0655 20.207 18.9324 20.3827L18.4748 20.9869L18.13 20.7712L18.5876 20.1671C18.7719 19.9238 18.7468 19.597 18.5272 19.3793C18.2761 19.1304 18.074 18.847 17.9266 18.5368C17.7976 18.2657 17.4789 18.1114 17.1603 18.1651L16.3666 18.2982L16.2906 17.9242L17.0844 17.7911C17.404 17.7375 17.6404 17.4902 17.6543 17.1951C17.6703 16.8577 17.7478 16.5276 17.8847 16.2134C18.0044 15.9388 17.8996 15.6255 17.6319 15.4579L16.9673 15.042L17.2046 14.7286L17.8692 15.1446C18.1371 15.3123 18.4963 15.2893 18.7357 15.0897C19.0096 14.8614 19.3213 14.6777 19.6625 14.5436C19.9606 14.4264 20.1303 14.1374 20.0714 13.847L19.925 13.1254L20.3364 13.0564L20.4828 13.778C20.5418 14.0686 20.8138 14.2835 21.1384 14.2961C21.5095 14.3107 21.8727 14.3811 22.2181 14.5056C22.5204 14.6145 22.865 14.5191 23.0491 14.2758L23.5068 13.6716L23.8515 13.8873L23.3939 14.4915C23.2097 14.7349 23.2347 15.0616 23.4544 15.2793C23.7055 15.5282 23.9075 15.8115 24.0549 16.1216C24.1837 16.3927 24.502 16.5471 24.8212 16.4934L25.615 16.3604L25.6909 16.7344L24.8972 16.8675Z" fill="white" fill-opacity="0.87"/>
			<path d="M22.3828 15.4911C21.8428 15.1532 21.1901 15.0266 20.5454 15.1347C19.9006 15.2428 19.3407 15.5728 18.9689 16.0637C18.2012 17.0772 18.4838 18.4695 19.5986 19.1673C20.0228 19.4328 20.5074 19.5601 20.9871 19.5601C21.7683 19.5601 22.5371 19.2226 23.0127 18.5947C23.7802 17.5812 23.4977 16.1889 22.3828 15.4911ZM21.8644 17.876C21.5328 18.3138 20.871 18.4248 20.3894 18.1234C19.9077 17.8219 19.7856 17.2203 20.1172 16.7825C20.1173 16.7824 20.1173 16.7824 20.1173 16.7824C20.2778 16.5703 20.5198 16.4277 20.7984 16.381C20.8633 16.3702 20.9284 16.3648 20.993 16.3648C21.2058 16.3648 21.4133 16.4231 21.5922 16.5351C22.0739 16.8366 22.1961 17.4381 21.8644 17.876Z" fill="white" fill-opacity="0.87"/>
		</g>
		<defs>
			<clipPath id="clip0_1_4810">
				<rect width="26.4" height="24" fill="white" transform="translate(0.799988 0.00012207)"/>
			</clipPath>
		</defs>

</g>
	<g id="arrow">
		<svg xmlns="http://www.w3.org/2000/svg" width="21" height="20" viewBox="0 0 21 20" fill="none">
			<path d="M2.5 12.3668C2.5 12.5326 2.56585 12.6915 2.68306 12.8088C2.80027 12.926 2.95924 12.9918 3.125 12.9918H15.3663L12.6838 15.6743C12.5699 15.7922 12.5069 15.9501 12.5083 16.1139C12.5098 16.2778 12.5755 16.4346 12.6914 16.5505C12.8072 16.6663 12.964 16.7321 13.1279 16.7335C13.2917 16.7349 13.4496 16.6719 13.5675 16.5581L17.3175 12.8081C17.3753 12.7506 17.4212 12.6822 17.4525 12.6069C17.4839 12.5316 17.5 12.4509 17.5 12.3693V12.3668C17.5 12.2856 17.4838 12.2043 17.4513 12.1281C17.4201 12.0523 17.3742 11.9835 17.3162 11.9256L13.5663 8.17557C13.4484 8.06172 13.2905 7.99872 13.1266 8.00015C12.9628 8.00157 12.806 8.0673 12.6901 8.18318C12.5742 8.29906 12.5085 8.45582 12.5071 8.61969C12.5057 8.78356 12.5687 8.94144 12.6825 9.05932L15.3663 11.7418H3.125C2.95924 11.7418 2.80027 11.8077 2.68306 11.9249C2.56585 12.0421 2.5 12.2011 2.5 12.3668Z" fill="white"/>
		</svg>
	</g>


<!--Contact-->

<g id="man_standing">
<path d="M485.871 398.884L368.234 399.314C337.025 388.96 311.456 352.998 311.294 299.08C311.263 290.957 311.818 282.845 312.956 274.82L407.707 251.316L480.802 233.186C486.188 238.512 491.207 244.273 495.817 250.423L425.921 291.173L392.948 310.397L430 296.284L506.902 266.991C511.698 275.087 515.971 283.546 519.69 292.305L496.487 318.782L522.735 299.809C522.847 300.099 522.959 300.391 523.07 300.682C539.705 344.286 519.065 398.762 485.871 398.884Z" fill="#DEDDDD"/>
<path d="M466.539 220.982C448.749 226.624 426.878 233.751 404.391 241.159C371.878 251.874 338.079 263.18 313.472 271.445L313.488 271.349C314.397 265.549 316.536 260.069 319.729 255.355C337.957 229.187 361.167 210.907 386.999 204.119H387.002C394.266 202.205 401.706 201.225 409.173 201.198C429.726 201.123 449.193 208.24 466.539 220.982Z" fill="#DEDDDD"/>
<path d="M129.793 317.363L109.454 384.619L104.46 401.143C102.056 405.154 99.1908 408.804 95.9358 412H95.4585C69.8336 412 46.5643 410.544 29.4177 408.181L31.8041 387.98L36.926 344.653L43.4747 289.166C47.346 286.38 51.3996 283.916 55.602 281.794L61.3757 339.343L64.1009 366.492L64.8913 337.423L66.5284 277.085C71.6915 275.241 76.9717 273.824 82.3253 272.846L90.9012 294.436L86.8467 272.121C87.0212 272.098 87.1958 272.07 87.3702 272.047C113.406 268.585 136.937 293.722 129.793 317.363Z" fill="#DEDDDD"/>
<path d="M34.1033 296.975C33.1385 310.716 32.0556 327.642 30.9778 345.067C30.0746 359.715 29.1816 374.708 28.3758 388.444C27.9755 395.295 27.5957 401.834 27.2519 407.864C24.3368 407.439 21.6116 406.98 19.102 406.504C16.6261 401.649 14.5099 396.582 12.774 391.351C8.36031 378.052 6.67182 364.106 8.15502 350.331V350.325C8.75136 344.771 9.8623 339.298 11.4704 333.994C15.8553 319.628 23.6753 306.837 34.1033 296.975Z" fill="#DEDDDD"/>
<path d="M190.917 398.236C190.917 405.818 148.433 411.96 95.9358 412H95.4585C69.8336 412 46.5643 410.544 29.4176 408.181C28.6837 408.073 27.9601 407.971 27.2519 407.863C24.3368 407.438 21.6116 406.98 19.102 406.504C7.10807 404.197 0 401.336 0 398.236C0 395.726 4.64975 393.38 12.774 391.351C17.0645 390.28 22.3198 389.306 28.3758 388.444C29.4895 388.28 30.6323 388.125 31.8041 387.98C48.6941 385.798 71.0037 384.472 95.4585 384.472C100.211 384.472 104.886 384.523 109.454 384.619C155.536 385.594 190.917 391.317 190.917 398.236Z" fill="#3F3D56"/>
<path d="M76.946 277.741L79.3445 298.397C79.3445 298.397 80.304 305.283 81.2634 308.99C81.2634 308.99 80.304 328.587 87.9792 342.358L92.7762 352.422L93.7356 367.252L105.728 368.841L103.33 346.595C103.33 346.595 102.37 336.002 103.33 331.765C104.289 327.528 98.5326 307.931 98.5326 307.931C98.5326 307.931 106.208 280.389 100.451 273.504C94.695 266.618 76.946 277.741 76.946 277.741Z" fill="#DAAB85"/>
<path d="M98.0529 363.015C98.0529 363.015 92.7762 363.015 92.2965 364.604C91.8168 366.193 84.1416 380.493 84.1416 380.493C84.1416 380.493 77.4258 392.145 87.0198 392.675C96.6138 393.205 99.492 388.438 99.492 388.438C99.492 388.438 108.127 373.078 108.606 370.43C109.086 367.782 105.002 362.106 105.002 362.106C105.002 362.106 99.492 366.193 98.0529 363.015Z" fill="#2F2E41"/>
<path d="M104.769 103.486C113.776 103.486 121.079 95.4235 121.079 85.4779C121.079 75.5323 113.776 67.4698 104.769 67.4698C95.761 67.4698 88.4589 75.5323 88.4589 85.4779C88.4589 95.4235 95.761 103.486 104.769 103.486Z" fill="#DAAB85"/>
<path d="M91.577 91.0392C91.577 91.0392 91.577 110.636 85.3408 112.225C79.1047 113.814 93.9755 131.822 102.13 129.704C110.285 127.585 113.643 113.284 113.643 113.284C113.643 113.284 106.448 103.221 109.326 97.9246C112.204 92.6281 91.577 91.0392 91.577 91.0392Z" fill="#DAAB85"/>
<path d="M98.5326 118.316C96.2429 118.237 94.0036 117.554 92.0016 116.325C89.9996 115.095 88.293 113.355 87.0244 111.249C87.0244 111.249 80.3039 112.49 79.3446 113.02C78.3852 113.549 61.5956 119.375 57.758 131.557L73.1084 153.273C73.1084 153.273 69.7505 183.993 73.1084 197.764C75.108 206.012 74.6025 214.757 71.6693 222.657C71.6693 222.657 70.2302 223.187 72.6287 224.246C75.0273 225.306 130.193 213.124 131.152 209.946C132.112 206.768 130.193 206.768 131.632 205.179C133.071 203.59 136.909 194.056 133.071 190.878C129.234 187.7 126.835 152.743 126.835 152.743L136.909 124.672C136.909 124.672 118.498 108.426 111.873 110.458C111.873 110.458 110.525 118.316 98.5326 118.316Z" fill="#D0CDE6"/>
<path d="M104.769 267.148C104.769 267.148 103.809 290.453 105.728 299.457C107.647 308.461 107.647 312.168 107.647 312.168C107.647 312.168 104.769 327.528 106.208 341.829C107.647 356.129 104.529 379.18 104.529 379.18L116.282 383.141L123.477 342.888C123.477 342.888 129.233 317.994 125.876 306.342C125.876 306.342 127.794 270.855 129.233 267.148C130.673 263.44 104.769 267.148 104.769 267.148Z" fill="#DAAB85"/>
<path d="M91.8967 88.6851C92.1129 86.996 92.5702 85.1534 93.8747 84.2392C95.229 83.2902 96.9772 83.6795 98.5769 83.8087C100.177 83.9378 102.137 83.4961 102.663 81.8229C102.991 80.7797 102.636 79.5329 103.148 78.584C103.962 77.0739 106.447 77.2462 106.876 75.5538C107.011 75.0178 106.879 74.4195 107.075 73.9067C107.34 73.2149 108.082 72.9391 108.744 72.7697C111.167 72.1509 113.655 71.9088 116.138 72.0503C116.382 72.0984 116.632 72.0436 116.84 71.897C116.95 71.777 117.028 71.6266 117.067 71.4616C117.628 69.6071 117.033 67.5029 115.916 65.986C114.729 64.5251 113.265 63.3704 111.628 62.6036C108.005 60.6634 104.077 59.511 100.06 59.2091C96.9999 58.9969 93.788 59.3647 91.1818 61.1474C90.4093 61.6869 89.6925 62.3178 89.044 63.029C86.2088 66.1682 84.3603 70.2287 83.77 74.6139C83.1976 78.9886 83.6409 83.4522 85.0584 87.5859C85.8865 90.0744 87.1926 92.6445 89.2135 94.178C90.2967 94.9999 91.2306 95.7586 91.6804 94.363C92.1574 92.8831 91.6867 90.3251 91.8967 88.6851Z" fill="#2F2E41"/>
<path d="M74.0678 219.479C74.0678 219.479 66.8723 230.072 68.3114 237.488C69.7505 244.903 75.0272 257.085 75.0272 257.085C75.0272 257.085 72.149 280.919 76.946 280.919C81.743 280.919 102.37 279.86 102.85 277.211C103.33 274.563 101.411 248.081 101.411 248.081C101.411 248.081 103.809 271.385 105.248 271.385C106.688 271.385 131.632 274.033 132.591 272.444C133.551 270.855 135.47 230.072 135.47 230.072C135.47 230.072 138.086 210.838 129.822 208.273C121.558 205.708 74.0678 219.479 74.0678 219.479Z" fill="#2F2E41"/>
<path d="M112.444 378.904C112.444 378.904 103.809 373.608 103.33 377.845C102.85 382.082 97.5732 397.442 97.5732 397.442C97.5732 397.442 92.2965 409.624 103.809 410.153C115.322 410.683 118.2 404.857 118.2 402.209C118.2 399.56 116.91 381.392 116.91 381.392L112.444 378.904Z" fill="#2F2E41"/>
<path d="M142.185 153.273L144.584 176.578C144.584 176.578 147.462 189.289 145.543 194.586C143.625 199.882 136.429 224.246 136.429 224.246C136.429 224.246 134.51 211.005 129.713 209.416L132.591 179.226C132.591 179.226 125.723 160.387 127.239 157.889C128.754 155.392 142.185 153.273 142.185 153.273Z" fill="#DAAB85"/>
<path d="M56.7986 154.862L57.758 176.048C57.758 176.048 54.4001 194.586 61.1159 214.183L62.0753 222.657L68.3114 235.899C68.3114 235.899 69.7505 223.187 72.6287 223.187C72.6287 223.187 69.7505 214.713 70.7099 209.946C71.6693 205.179 70.2302 179.756 70.2302 179.756L72.6287 159.189L56.7986 154.862Z" fill="#DAAB85"/>
<path d="M131.632 124.142H136.909C136.909 124.142 149.381 155.921 144.584 156.451C139.787 156.981 124.436 161.218 123.957 159.099C123.477 156.981 131.632 124.142 131.632 124.142Z" fill="#D0CDE6"/>
<path d="M62.0753 126.791L57.758 131.557C57.758 131.557 52.0016 155.392 56.3189 158.04C60.6362 160.688 76.946 163.866 77.9054 161.747C78.8649 159.629 62.0753 126.791 62.0753 126.791Z" fill="#D0CDE6"/>
<path d="M405.997 16.5068V383.814C405.993 388.189 404.416 392.384 401.613 395.477C398.81 398.57 395.01 400.308 391.047 400.309H255.993C254.03 400.313 252.085 399.889 250.271 399.061C248.456 398.234 246.807 397.019 245.418 395.487C244.029 393.954 242.928 392.134 242.177 390.131C241.427 388.128 241.041 385.981 241.043 383.814V16.5069C241.043 14.3391 241.43 12.1926 242.181 10.1898C242.932 8.18702 244.033 6.36726 245.422 4.83444C246.81 3.30161 248.458 2.08574 250.272 1.25627C252.086 0.426795 254.03 -3.41908e-05 255.993 0.000153362H276.204V2.86177C276.203 6.4663 277.5 9.92341 279.808 12.4727C282.116 15.0221 285.246 16.4548 288.511 16.4559H357.2C359.828 16.462 362.387 15.532 364.498 13.8039C364.925 13.4612 365.329 13.0863 365.709 12.6819C366.911 11.4143 367.868 9.89028 368.521 8.20222C369.174 6.51417 369.509 4.69728 369.507 2.86177V0.000153362H391.047C393.01 -0.000510774 394.954 0.425993 396.768 1.2553C398.583 2.0846 400.231 3.30045 401.619 4.83336C403.008 6.36628 404.109 8.18623 404.86 10.1892C405.611 12.1922 405.997 14.339 405.997 16.5068Z" fill="#3F3D56"/>
<path opacity="0.1" d="M342.316 156.194C363.575 156.194 380.808 152.389 380.808 147.695C380.808 143 363.575 139.195 342.316 139.195C321.058 139.195 303.825 143 303.825 147.695C303.825 152.389 321.058 156.194 342.316 156.194Z" fill="black"/>
<path opacity="0.1" d="M286.376 199.827C307.634 199.827 324.867 196.021 324.867 191.327C324.867 186.633 307.634 182.827 286.376 182.827C265.117 182.827 247.884 186.633 247.884 191.327C247.884 196.021 265.117 199.827 286.376 199.827Z" fill="black"/>
<path opacity="0.1" d="M318.195 279.726C339.453 279.726 356.686 275.92 356.686 271.226C356.686 266.531 339.453 262.726 318.195 262.726C296.937 262.726 279.704 266.531 279.704 271.226C279.704 275.92 296.937 279.726 318.195 279.726Z" fill="black"/>
<path opacity="0.1" d="M307.417 366.424C328.676 366.424 345.909 362.618 345.909 357.924C345.909 353.23 328.676 349.424 307.417 349.424C286.159 349.424 268.926 353.23 268.926 357.924C268.926 362.618 286.159 366.424 307.417 366.424Z" fill="black"/>
<path d="M441.111 228.644H324.097V241.268V260.492V271.309L333.893 260.492H441.111V228.644Z" fill="#6C63FF"/>
<path d="M162.177 147.328H279.19V159.952V179.177V189.994L269.394 179.177H162.177V147.328Z" fill="#6C63FF"/>
<path d="M416.032 236.376H350.203V242.27H416.032V236.376Z" fill="white"/>
<path d="M416.032 245.216H350.203V251.109H416.032V245.216Z" fill="white"/>
<path d="M247.953 155.628H182.124V161.521H247.953V155.628Z" fill="white"/>
<path d="M247.953 164.468H182.124V170.361H247.953V164.468Z" fill="white"/>
<path d="M563 67.2294H342.316V91.038V127.295V147.695L360.792 127.295H563V67.2294Z" fill="#6C63FF"/>
<path d="M528.614 80.8292H376.702V94.4289H528.614V80.8292Z" fill="white"/>
<path d="M528.614 101.229H376.702V114.829H528.614V101.229Z" fill="white"/>
<path d="M293.479 340.929C299.096 352.432 311.018 357.369 311.018 357.369C311.018 357.369 313.832 343.658 308.215 332.156C302.598 320.654 290.676 315.716 290.676 315.716C290.676 315.716 287.861 329.427 293.479 340.929Z" fill="white"/>
<path d="M297.34 337.145C307.481 343.882 311.387 357.263 311.387 357.263C311.387 357.263 298.85 359.722 288.709 352.985C278.567 346.248 274.661 332.867 274.661 332.867C274.661 332.867 287.198 330.409 297.34 337.145Z" fill="#6C63FF"/>
</g>

<!--footer-->

<g id="bg_wave_top">
<path fill-rule="evenodd" clip-rule="evenodd" d="M0 65.5664L60 52.0944C120 38.6224 240 12.2908 360 3.71769C480 -5.46775 600 3.71769 720 16.5773C840 30.0493 960 47.8078 1080 52.0944C1200 56.3809 1320 47.8078 1380 43.5213L1440 38.6224V250.5H1380C1320 250.5 1200 250.5 1080 250.5C960 250.5 840 250.5 720 250.5C600 250.5 480 250.5 360 250.5C240 250.5 120 250.5 60 250.5H0V65.5664Z" fill="#343D68"/>
</g>

<g id="bg_wave_bottom">
<path fill-rule="evenodd" clip-rule="evenodd" d="M1440 185.434L1380 198.906C1320 212.378 1200 238.709 1080 247.282C960 256.468 840 247.282 720 234.423C600 220.951 480 203.192 360 198.906C240 194.619 120 203.192 60 207.479L0 212.378V0.5H60C120 0.5 240 0.5 360 0.5C480 0.5 600 0.5 720 0.5C840 0.5 960 0.5 1080 0.5C1200 0.5 1320 0.5 1380 0.5H1440V185.434Z" fill="#343D68"/>
</g>

<g id="linkedin">
	<path d="M27.2863 0H2.71374C1.215 0 0 1.215 0 2.71374V27.2862C0 28.785 1.215 30 2.71374 30H27.2862C28.785 30 30 28.785 30 27.2862V2.71374C30 1.215 28.785 0 27.2863 0ZM9.28327 25.904C9.28327 26.3402 8.92971 26.6937 8.49353 26.6937H5.13181C4.69563 26.6937 4.34207 26.3402 4.34207 25.904V11.8118C4.34207 11.3756 4.69563 11.022 5.13181 11.022H8.49353C8.92971 11.022 9.28327 11.3756 9.28327 11.8118V25.904ZM6.81267 9.69361C5.04887 9.69361 3.61901 8.26374 3.61901 6.49995C3.61901 4.73615 5.04887 3.30628 6.81267 3.30628C8.57647 3.30628 10.0063 4.73615 10.0063 6.49995C10.0063 8.26374 8.57654 9.69361 6.81267 9.69361ZM26.8516 25.9676C26.8516 26.3686 26.5264 26.6937 26.1254 26.6937H22.5181C22.1171 26.6937 21.7919 26.3686 21.7919 25.9676V19.3575C21.7919 18.3715 22.0812 15.0365 19.215 15.0365C16.9918 15.0365 16.5408 17.3192 16.4503 18.3436V25.9676C16.4503 26.3686 16.1252 26.6937 15.7242 26.6937H12.2352C11.8342 26.6937 11.5091 26.3686 11.5091 25.9676V11.7481C11.5091 11.3471 11.8342 11.022 12.2352 11.022H15.7242C16.1252 11.022 16.4503 11.3471 16.4503 11.7481V12.9776C17.2747 11.7404 18.4998 10.7855 21.1083 10.7855C26.8846 10.7855 26.8516 16.1821 26.8516 19.1472V25.9676Z" fill="white"/>

</g>

<g id="whatsapp">
	<path d="M4.40904 24.1866L4.83954 23.1821L4.22665 22.2772C2.76895 20.1251 2 17.6184 2 15C2 11.5238 3.34949 8.26561 5.80756 5.80759C8.26567 3.34953 11.5238 2 15 2C18.4762 2 21.7344 3.34954 24.1924 5.80756C26.6504 8.26569 28 11.5238 28 15C28 18.4762 26.6504 21.7343 24.1924 24.1924C21.7344 26.6505 18.4762 28 15 28C12.2899 28 9.71296 27.1818 7.51472 25.6292L6.55827 24.9537L5.50107 25.4571L3.44496 26.4362L4.40904 24.1866ZM0.500026 29.5001L0.500008 29.5L0.499976 29.5L0.500026 29.5001Z" stroke="white" stroke-width="4"/>
<path d="M22.9917 20.0766L22.5421 17.6414C22.5049 17.4403 22.349 17.282 22.1485 17.2419L18.613 16.5348C18.4488 16.5021 18.2795 16.5534 18.1613 16.6716L16.7249 18.108C14.3049 17.0236 12.9617 15.6776 11.7798 13.1536L13.2116 11.7218C13.3298 11.6036 13.3811 11.4341 13.3483 11.2701L12.6412 7.73459C12.6011 7.53403 12.4428 7.37811 12.2417 7.34096L9.80646 6.89137C9.73978 6.87906 9.6711 6.88041 9.60489 6.89547C8.96189 7.0416 8.37519 7.36557 7.90825 7.83262C7.0996 8.64127 6.79058 9.82117 7.01458 11.2449C7.39064 13.6356 8.56198 16.9627 10.7229 19.1322L10.7523 19.1615C12.9204 21.321 16.2474 22.4924 18.6381 22.8685C18.9392 22.9159 19.2294 22.9394 19.5075 22.9394C20.5442 22.9394 21.4128 22.6124 22.0504 21.9748C22.5174 21.5078 22.8415 20.9211 22.9875 20.2781C23.0026 20.212 23.0041 20.1433 22.9917 20.0766Z" fill="white"/>
</g>

<g id="twitter">
	<path d="M0.57803 22.5003C1.84538 22.3455 3.13052 22.5122 4.39787 22.304C5.03446 22.2029 5.61758 21.9887 6.19472 21.7625C4.76679 20.8463 3.48153 19.7991 2.2857 18.5437C1.85732 18.0974 2.16666 17.3478 2.79145 17.33C3.30317 17.3537 3.80294 17.3122 4.29077 17.211C3.04718 15.6343 2.08333 13.9385 1.33366 12.0346C1.13142 11.5229 1.72634 11.0053 2.20833 11.1599C2.48795 11.273 2.77353 11.3503 3.06509 11.4098C2.17861 9.27972 1.99415 7.13186 2.48795 4.77565C2.60101 4.2342 3.31498 4.10335 3.67793 4.46033C6.52198 7.25661 10.1157 8.60133 13.9593 9.24389C13.6201 6.61404 15.4885 3.81763 17.9397 2.90129C19.9746 2.14566 22.7056 2.66335 24.0741 4.37686C24.9904 3.79972 26.2576 3.60929 27.2751 3.4308C27.8106 3.34149 28.3283 3.86515 28.0129 4.39465C27.644 5.01346 27.293 5.67381 26.9063 6.30457C27.6917 6.07246 28.5009 5.92967 29.31 5.82855C29.8931 5.75118 30.2441 6.64961 29.798 7.00659C28.8519 7.76222 27.9118 8.62495 26.9063 9.31516C26.8766 15.9968 24.925 21.6017 18.9573 25.4036C13.983 28.581 4.73694 28.0456 0.411481 23.72H0.40551C0.215076 23.6723 0.113953 23.5295 0.0782549 23.3749C-0.0882935 23.125 0.030614 22.8157 0.250775 22.6967C0.334114 22.5954 0.441208 22.518 0.57803 22.5003Z" fill="white"/>
</g>

<g id="gmail">
<path d="M30 6.19559V23.8043C30 25.4282 28.6891 26.7391 27.0652 26.7391H2.93479C1.31086 26.7391 0 25.4282 0 23.8043V6.19559C0 6.14344 0 6.09124 0.00650391 6.03909C0.0847852 4.53909 1.27822 3.34559 2.77822 3.26737C2.83037 3.26086 2.88258 3.26086 2.93473 3.26086H27.0652C27.1173 3.26086 27.176 3.26086 27.2282 3.26737C28.7217 3.34565 29.9152 4.53909 29.9934 6.03258C30 6.08473 30 6.14344 30 6.19559Z" fill="white"/>
<path d="M27.2283 3.26731C27.176 3.2608 27.1175 3.2608 27.0652 3.2608H15V26.7391H27.0652C28.6891 26.7391 30 25.4282 30 23.8043V6.19559C30 6.14344 30 6.08473 29.9935 6.03252C29.9152 4.53908 28.7217 3.34559 27.2283 3.26731Z" fill="white"/>
<path d="M29.9935 6.03267C29.9152 4.53917 28.7218 3.34573 27.2283 3.26745C22.435 8.06072 19.7432 10.7525 15 15.4957C13.2006 13.6953 4.54746 5.03663 2.77828 3.2674C1.27828 3.34568 0.0847852 4.53911 0.0065625 6.03911C0 6.09132 0 6.14353 0 6.19568V23.8044C0 25.4283 1.31086 26.7392 2.93479 26.7392H3.91307V9.94568L13.6174 19.6435C13.9957 20.0283 14.4979 20.2175 15.0001 20.2175C15.5022 20.2175 16.0044 20.0283 16.3827 19.6435L26.0871 9.93917V26.7392H27.0653C28.6893 26.7392 30.0001 25.4283 30.0001 23.8044V6.19568C30 6.14353 30 6.08482 29.9935 6.03267Z" fill="#303030" fill-opacity="0.57"/>
<path d="M16.3826 19.6435L26.0869 9.93917V26.7392H27.0652C28.6891 26.7392 30 25.4283 30 23.8044V6.19568C30 6.14353 30 6.08482 29.9935 6.03261C29.9152 4.53911 28.7218 3.34568 27.2283 3.2674C22.435 8.06072 19.7432 10.7525 15 15.4957V20.2174C15.5021 20.2174 16.0044 20.0283 16.3826 19.6435Z" fill="#303030" fill-opacity="0.57"/>
</g>

<g id="github">
<path d="M15.4995 0.812317C7.21661 0.812317 0.5 7.55409 0.5 15.8728C0.5 22.5255 4.79726 28.1704 10.76 30.1615C11.5095 30.3004 11.7829 29.8354 11.7829 29.4357C11.7829 29.0786 11.7698 28.1317 11.7626 26.8746C7.58919 27.7857 6.70903 24.8559 6.70903 24.8559C6.02774 23.1159 5.04452 22.6538 5.04452 22.6538C3.68194 21.7189 5.1471 21.7368 5.1471 21.7368C6.65194 21.8428 7.44403 23.2896 7.44403 23.2896C8.78339 25.5909 10.956 24.9255 11.8105 24.5399C11.9455 23.5673 12.334 22.903 12.7623 22.527C9.43226 22.1462 5.93097 20.8552 5.93097 15.0851C5.93097 13.4413 6.515 12.0967 7.47452 11.0428C7.31919 10.662 6.80484 9.13151 7.62064 7.05861C7.62064 7.05861 8.88064 6.65409 11.7456 8.60216C12.9423 8.26828 14.2255 8.10135 15.5015 8.09457C16.7745 8.10135 18.0587 8.2678 19.2573 8.60216C22.1198 6.65409 23.3779 7.05861 23.3779 7.05861C24.1956 9.13151 23.6813 10.662 23.5265 11.0428C24.4884 12.0967 25.069 13.4409 25.069 15.0851C25.069 20.8697 21.5619 22.1423 18.2203 22.5159C18.7589 22.9809 19.2384 23.8993 19.2384 25.3049C19.2384 27.3188 19.2205 28.9417 19.2205 29.4357C19.2205 29.8393 19.491 30.3081 20.2516 30.1596C26.2066 28.1646 30.5 22.5236 30.5 15.8728C30.5 7.55409 23.7834 0.812317 15.4995 0.812317Z" fill="white"/>
<path d="M15.4995 0.812317C7.21661 0.812317 0.5 7.55409 0.5 15.8728C0.5 22.5255 4.79726 28.1704 10.76 30.1615C11.5095 30.3004 11.7829 29.8354 11.7829 29.4357C11.7829 29.0786 11.7698 28.1317 11.7626 26.8746C7.58919 27.7857 6.70903 24.8559 6.70903 24.8559C6.02774 23.1159 5.04452 22.6538 5.04452 22.6538C3.68194 21.7189 5.1471 21.7368 5.1471 21.7368C6.65194 21.8428 7.44403 23.2896 7.44403 23.2896C8.78339 25.5909 10.956 24.9255 11.8105 24.5399C11.9455 23.5673 12.334 22.903 12.7623 22.527C9.43226 22.1462 5.93097 20.8552 5.93097 15.0851C5.93097 13.4413 6.515 12.0967 7.47452 11.0428C7.31919 10.662 6.80484 9.13151 7.62064 7.05861C7.62064 7.05861 8.88064 6.65409 11.7456 8.60216C12.9423 8.26828 14.2255 8.10135 15.5015 8.09457C16.7745 8.10135 18.0587 8.2678 19.2573 8.60216C22.1198 6.65409 23.3779 7.05861 23.3779 7.05861C24.1956 9.13151 23.6813 10.662 23.5265 11.0428C24.4884 12.0967 25.069 13.4409 25.069 15.0851C25.069 20.8697 21.5619 22.1423 18.2203 22.5159C18.7589 22.9809 19.2384 23.8993 19.2384 25.3049C19.2384 27.3188 19.2205 28.9417 19.2205 29.4357C19.2205 29.8393 19.491 30.3081 20.2516 30.1596C26.2066 28.1646 30.5 22.5236 30.5 15.8728C30.5 7.55409 23.7834 0.812317 15.4995 0.812317Z" fill="white"/>
<path d="M23.3929 7.10059C24.1869 9.15123 23.6803 10.6648 23.526 11.0427C24.4879 12.0966 25.0686 13.4407 25.0686 15.0849C25.0686 20.8696 21.5615 22.1422 18.2198 22.5157C18.7584 22.9807 19.2379 23.8991 19.2379 25.3048C19.2379 27.3187 19.22 28.9416 19.22 29.4356C19.22 29.8391 19.4905 30.308 20.2511 30.1595C26.2066 28.1645 30.5 22.5235 30.5 15.8727C30.5 14.0848 30.1884 12.3709 29.6189 10.7799C27.5508 8.60252 25.249 7.15236 23.3929 7.10059Z" fill="white"/>
<path d="M12.1719 23.3219C12.3403 22.9823 12.546 22.7181 12.7623 22.5269C10.9371 22.3179 9.06258 21.8306 7.73919 20.486C8.75726 22.1805 10.415 22.9513 12.1719 23.3219Z" fill="white"/>
<path d="M1.28097 16.888C1.28097 8.56925 7.99758 1.82748 16.2805 1.82748C20.8797 1.82748 24.9935 3.90764 27.7444 7.17958C25.0274 3.32796 20.5574 0.812317 15.4995 0.812317C7.21661 0.812317 0.5 7.55409 0.5 15.8728C0.5 19.5817 1.8379 22.9751 4.05355 25.5981C2.31113 23.1386 1.28097 20.1357 1.28097 16.888Z" fill="white"/>
<path d="M20.0189 26.3205C20.0189 24.9154 19.5394 23.9955 19.0008 23.5305C22.3424 23.158 25.85 21.8844 25.85 16.1002C25.85 14.456 25.2694 13.1123 24.3065 12.0584C24.4623 11.6776 24.9776 10.1467 24.1579 8.07425C24.1579 8.07425 24.0021 8.02634 23.6803 8.04473C24.0316 9.60763 23.6552 10.7254 23.526 11.0428C24.4879 12.0967 25.0685 13.4409 25.0685 15.0851C25.0685 20.8697 21.5615 22.1423 18.2198 22.5159C18.7584 22.9809 19.2379 23.8992 19.2379 25.3049C19.2379 27.3188 19.22 28.9417 19.22 29.4357C19.22 29.7909 19.4315 30.1959 20.0015 30.1862C20.0053 29.5054 20.0189 28.06 20.0189 26.3205Z" fill="white"/>
<path d="M7.60468 26.1448C7.91968 26.7932 8.97839 28.3464 11.7713 28.0193C11.7674 27.6777 11.7645 27.295 11.7626 26.8745C9.6079 27.3448 8.33581 26.7903 7.60468 26.1448Z" fill="white"/>
<path d="M8.14323 24.1726C8.04694 24.0274 7.86645 23.7811 7.60468 23.5349C7.77452 23.7869 7.955 23.9984 8.14323 24.1726Z" fill="white"/>
</g>

</svg>