<svg width="30" height="30" viewBox="0 0 30 30" fill="none" xmlns="http://www.w3.org/2000/svg">
<path d="M0.57803 22.5003C1.84538 22.3455 3.13052 22.5122 4.39787 22.304C5.03446 22.2029 5.61758 21.9887 6.19472 21.7625C4.76679 20.8463 3.48153 19.7991 2.2857 18.5437C1.85732 18.0974 2.16666 17.3478 2.79145 17.33C3.30317 17.3537 3.80294 17.3122 4.29077 17.211C3.04718 15.6343 2.08333 13.9385 1.33366 12.0346C1.13142 11.5229 1.72634 11.0053 2.20833 11.1599C2.48795 11.273 2.77353 11.3503 3.06509 11.4098C2.17861 9.27972 1.99415 7.13186 2.48795 4.77565C2.60101 4.2342 3.31498 4.10335 3.67793 4.46033C6.52198 7.25661 10.1157 8.60133 13.9593 9.24389C13.6201 6.61404 15.4885 3.81763 17.9397 2.90129C19.9746 2.14566 22.7056 2.66335 24.0741 4.37686C24.9904 3.79972 26.2576 3.60929 27.2751 3.4308C27.8106 3.34149 28.3283 3.86515 28.0129 4.39465C27.644 5.01346 27.293 5.67381 26.9063 6.30457C27.6917 6.07246 28.5009 5.92967 29.31 5.82855C29.8931 5.75118 30.2441 6.64961 29.798 7.00659C28.8519 7.76222 27.9118 8.62495 26.9063 9.31516C26.8766 15.9968 24.925 21.6017 18.9573 25.4036C13.983 28.581 4.73694 28.0456 0.411481 23.72H0.40551C0.215076 23.6723 0.113953 23.5295 0.0782549 23.3749C-0.0882935 23.125 0.030614 22.8157 0.250775 22.6967C0.334114 22.5954 0.441208 22.518 0.57803 22.5003Z" fill="white"/>
</svg>
